<?xml version="1.0" standalone="no"?>
<!DOCTYPE svg PUBLIC "-//W3C//DTD SVG 1.1//EN" "http://www.w3.org/Graphics/SVG/1.1/DTD/svg11.dtd" >
<svg xmlns="http://www.w3.org/2000/svg">
<metadata>Generated by IcoMoon</metadata>
<defs>
<font id="chadwelltravel" horiz-adv-x="1024">
<font-face units-per-em="1024" ascent="921.6" descent="-102.4" />
<missing-glyph horiz-adv-x="1024" />
<glyph unicode="&#x20;" horiz-adv-x="512" d="" />
<glyph unicode="&#xe600;" glyph-name="x" d="M960 115.264l-268.992 268.736 268.992 268.736-179.264 179.264-268.736-268.864-268.864 268.864-179.136-179.264 268.736-268.736-268.736-268.736 179.136-179.264 268.864 268.864 268.736-268.864z" />
<glyph unicode="&#xe601;" glyph-name="magnifier" d="M932.992-62.752l-22.688-22.688c-25.12-25.088-65.76-25.088-90.816 0l-181.632 181.568c-20.992 21.056-23.328 52.608-8.992 77.184l-99.328 99.264c-53.408-39.616-119.296-63.328-190.88-63.328-177.28 0-320.992 143.712-320.992 320.992 0 177.312 143.712 321.024 320.992 321.024 177.312 0 320.992-143.712 320.992-321.024 0-82.528-31.36-157.536-82.56-214.4l97.12-97.12c24.576 14.304 56.128 12 77.12-9.056l181.632-181.568c25.088-25.12 25.088-65.792 0.032-90.848zM578.816 531.552c0 132.96-107.808 240.736-240.768 240.736s-240.768-107.744-240.768-240.736 107.776-240.736 240.736-240.736 240.8 107.776 240.8 240.736z" />
<glyph unicode="&#xe603;" glyph-name="comments" horiz-adv-x="1152" d="M1088-5.166c0-45.5 26.028-84.908 64-104.184v-15.938c-10.626-1.454-21.472-2.224-32.5-2.224-68.008 0-129.348 28.528-172.722 74.264-26.222-6.982-54.002-10.752-82.778-10.752-159.058 0-288 114.616-288 256s128.942 256 288 256c159.058 0 288-114.616 288-256 0-55.348-19.764-106.592-53.356-148.466-6.824-14.824-10.644-31.312-10.644-48.7zM512 896c278.458 0 504.992-180.614 511.836-405.52-49.182 21.92-103.586 33.52-159.836 33.52-95.56 0-185.816-33.446-254.138-94.178-70.846-62.972-109.862-147.434-109.862-237.822 0-44.672 9.544-87.888 27.736-127.788-5.228-0.126-10.468-0.212-15.736-0.212-27.156 0-53.81 1.734-79.824 5.044-109.978-109.978-241.25-129.7-368.176-132.596v26.916c68.536 33.578 128 94.74 128 164.636 0 9.754-0.758 19.33-2.164 28.696-115.796 76.264-189.836 192.754-189.836 323.304 0 229.75 229.23 416 512 416z" />
<glyph unicode="&#xe604;" glyph-name="user" d="M576 189.388v52.78c70.498 39.728 128 138.772 128 237.832 0 159.058 0 288-192 288s-192-128.942-192-288c0-99.060 57.502-198.104 128-237.832v-52.78c-217.102-17.748-384-124.42-384-253.388h896c0 128.968-166.898 235.64-384 253.388z" />
<glyph unicode="&#xe605;" glyph-name="quotes-left" d="M225 448c123.712 0 224-100.29 224-224 0-123.712-100.288-224-224-224s-224 100.288-224 224l-1 32c0 247.424 200.576 448 448 448v-128c-85.474 0-165.834-33.286-226.274-93.726-11.634-11.636-22.252-24.016-31.83-37.020 11.438 1.8 23.16 2.746 35.104 2.746zM801 448c123.71 0 224-100.29 224-224 0-123.712-100.29-224-224-224s-224 100.288-224 224l-1 32c0 247.424 200.576 448 448 448v-128c-85.474 0-165.834-33.286-226.274-93.726-11.636-11.636-22.254-24.016-31.832-37.020 11.44 1.8 23.16 2.746 35.106 2.746z" />
<glyph unicode="&#xe606;" glyph-name="quotes-right" d="M800 256c-123.712 0-224 100.29-224 224 0 123.712 100.288 224 224 224s224-100.288 224-224l1-32c0-247.424-200.576-448-448-448v128c85.474 0 165.834 33.286 226.274 93.726 11.634 11.636 22.252 24.016 31.83 37.020-11.438-1.8-23.16-2.746-35.104-2.746zM224 256c-123.71 0-224 100.29-224 224 0 123.712 100.29 224 224 224s224-100.288 224-224l1-32c0-247.424-200.576-448-448-448v128c85.474 0 165.834 33.286 226.274 93.726 11.636 11.636 22.254 24.016 31.832 37.020-11.44-1.8-23.16-2.746-35.106-2.746z" />
<glyph unicode="&#xe607;" glyph-name="key" d="M704 896c-176.73 0-320-143.268-320-320 0-20.026 1.858-39.616 5.376-58.624l-389.376-389.376v-192c0-35.346 28.654-64 64-64h64v64h128v128h128v128h128l83.042 83.042c34.010-12.316 70.696-19.042 108.958-19.042 176.73 0 320 143.268 320 320s-143.27 320-320 320zM799.874 575.874c-53.020 0-96 42.98-96 96s42.98 96 96 96 96-42.98 96-96-42.98-96-96-96z" />
<glyph unicode="&#xe608;" glyph-name="cog" d="M933.79 285.75c-53.726 93.054-21.416 212.304 72.152 266.488l-100.626 174.292c-28.75-16.854-62.176-26.518-97.846-26.518-107.536 0-194.708 87.746-194.708 195.99h-201.258c0.266-33.41-8.074-67.282-25.958-98.252-53.724-93.056-173.156-124.702-266.862-70.758l-100.624-174.292c28.97-16.472 54.050-40.588 71.886-71.478 53.638-92.908 21.512-211.92-71.708-266.224l100.626-174.292c28.65 16.696 61.916 26.254 97.4 26.254 107.196 0 194.144-87.192 194.7-194.958h201.254c-0.086 33.074 8.272 66.57 25.966 97.218 53.636 92.906 172.776 124.594 266.414 71.012l100.626 174.29c-28.78 16.466-53.692 40.498-71.434 71.228zM512 176.668c-114.508 0-207.336 92.824-207.336 207.334 0 114.508 92.826 207.334 207.336 207.334 114.508 0 207.332-92.826 207.332-207.334-0.002-114.51-92.824-207.334-207.332-207.334z" />
<glyph unicode="&#xe609;" glyph-name="menu" d="M64 704h896v-192h-896zM64 448h896v-192h-896zM64 192h896v-192h-896z" />
<glyph unicode="&#xe60a;" glyph-name="earth" d="M512 896c-282.77 0-512-229.23-512-512s229.23-512 512-512 512 229.23 512 512-229.23 512-512 512zM512-64.002c-62.958 0-122.872 13.012-177.23 36.452l233.148 262.29c5.206 5.858 8.082 13.422 8.082 21.26v96c0 17.674-14.326 32-32 32-112.99 0-232.204 117.462-233.374 118.626-6 6.002-14.14 9.374-22.626 9.374h-128c-17.672 0-32-14.328-32-32v-192c0-12.122 6.848-23.202 17.69-28.622l110.31-55.156v-187.886c-116.052 80.956-192 215.432-192 367.664 0 68.714 15.49 133.806 43.138 192h116.862c8.488 0 16.626 3.372 22.628 9.372l128 128c6 6.002 9.372 14.14 9.372 22.628v77.412c40.562 12.074 83.518 18.588 128 18.588 70.406 0 137.004-16.26 196.282-45.2-4.144-3.502-8.176-7.164-12.046-11.036-36.266-36.264-56.236-84.478-56.236-135.764s19.97-99.5 56.236-135.764c36.434-36.432 85.218-56.264 135.634-56.26 3.166 0 6.342 0.080 9.518 0.236 13.814-51.802 38.752-186.656-8.404-372.334-0.444-1.744-0.696-3.488-0.842-5.224-81.324-83.080-194.7-134.656-320.142-134.656z" />
<glyph unicode="&#xe60c;" glyph-name="clock" d="M658.744 146.744l-210.744 210.746v282.51h128v-229.49l173.256-173.254zM512 896c-282.77 0-512-229.23-512-512s229.23-512 512-512 512 229.23 512 512-229.23 512-512 512zM512 0c-212.078 0-384 171.922-384 384s171.922 384 384 384c212.078 0 384-171.922 384-384s-171.922-384-384-384z" />
<glyph unicode="&#xe60d;" glyph-name="share" d="M864 192c-45.16 0-85.92-18.738-115.012-48.83l-431.004 215.502c1.314 8.252 2.016 16.706 2.016 25.328s-0.702 17.076-2.016 25.326l431.004 215.502c29.092-30.090 69.852-48.828 115.012-48.828 88.366 0 160 71.634 160 160s-71.634 160-160 160-160-71.634-160-160c0-8.622 0.704-17.076 2.016-25.326l-431.004-215.504c-29.092 30.090-69.852 48.83-115.012 48.83-88.366 0-160-71.636-160-160 0-88.368 71.634-160 160-160 45.16 0 85.92 18.738 115.012 48.828l431.004-215.502c-1.312-8.25-2.016-16.704-2.016-25.326 0-88.368 71.634-160 160-160s160 71.632 160 160c0 88.364-71.634 160-160 160z" />
<glyph unicode="&#xe610;" glyph-name="skype" d="M975.31 318.062c2.812 20.8 4.43 41.946 4.43 63.472 0 258.31-210.542 467.744-470.206 467.744-25.808 0-51.11-2.12-75.732-6.16-44.144 28.768-96.684 45.534-153.224 45.534-155.046 0-280.578-125.616-280.578-280.612 0-56.396 16.598-108.788 45.18-152.778-3.85-24.034-5.818-48.646-5.818-73.718 0-258.352 210.434-467.764 470.17-467.764 29.314 0 57.854 2.854 85.592 7.866 43.1-26.738 93.868-42.296 148.292-42.296 155.004-0.002 280.584 125.646 280.584 280.626-0.006 58.586-17.92 113.056-48.69 158.086zM553.48 36.808c-149.41-7.784-219.328 25.274-283.378 85.382-71.53 67.134-42.796 143.708 15.48 147.602 58.244 3.888 93.214-66.026 124.3-85.472 31.048-19.376 149.188-63.52 211.588 7.816 67.952 77.656-45.188 117.84-128.118 130.004-118.406 17.532-267.9 81.584-256.27 207.814 11.632 126.148 107.164 190.828 207.7 199.952 128.154 11.634 211.582-19.414 277.57-75.72 76.3-65.058 35.016-137.788-13.598-143.64-48.424-5.818-102.808 107.008-209.582 108.704-110.054 1.728-184.434-114.522-48.572-147.568 135.932-33.010 281.5-46.572 333.922-170.834 52.458-124.274-81.508-256.25-231.042-264.040z" />
<glyph unicode="&#xe611;" glyph-name="palmtree" horiz-adv-x="868" d="M363.676 478.569l-15.264-38.491-0.664-1.991-29.864-74.328c0 0 12.609-11.282 47.119-25.218 35.173-13.936 59.064-14.6 59.064-14.6s9.291 36.5 13.936 53.755c3.982 15.927 13.936 44.464 15.264 49.773v0.664c0 0-17.918 1.991-45.791 15.264-29.2 13.936-43.8 35.173-43.8 35.173zM414.776 558.206c-19.246-29.2-35.837-61.719-35.837-61.719s10.618-14.6 36.5-29.2c21.237-11.946 37.828-13.936 37.828-13.936l27.209 60.391c49.11-22.564 76.983-54.419 91.583-87.601l1.327-2.655c28.537-65.037 9.291-132.728 9.291-132.728s16.591 20.573 24.555 46.455c7.3 23.891 6.636 43.137 6.636 43.137s21.9-52.428 19.909-130.738c-1.991-76.319-33.182-149.983-33.182-149.983s69.019 38.491 103.528 106.183c25.218 49.11 21.237 107.51 21.237 107.51s14.6-18.582 10.618-57.737c-3.982-40.482-29.864-87.601-29.864-87.601s45.128 37.828 69.682 102.865c17.255 44.464 34.509 138.038-13.273 220.993l-1.327 1.991c-13.273 22.564-31.855 44.464-56.41 64.373-21.9 17.255-43.137 29.2-63.71 37.164 9.291 2.655 51.764 13.273 88.264-16.591 33.846-27.209 43.8-63.71 46.455-76.319v-0.664c0.664-2.655 0.664-3.982 0.664-3.982s1.327 1.991 2.655 7.3v0.664c1.991 7.3 3.982 19.909 1.327 38.491-5.309 39.155-31.855 65.701-31.855 65.701s37.828-22.564 51.1-70.346c1.327-3.318 1.991-7.3 2.655-10.618l0.664-1.991c6.636-46.455-11.282-102.865-11.282-102.865s98.219 82.955 73.001 191.793c-0.664 3.318-1.991 7.3-2.655 10.618l-0.664 1.327c-29.2 92.246-127.419 111.492-203.075 101.537-7.3-0.664-14.6-1.991-22.564-3.982 8.627 9.955 19.246 18.582 33.182 25.218 40.482 19.246 81.628 0 81.628 0s-1.991 35.173-35.837 62.382c-47.782 37.164-112.156 23.227-112.156 23.227s10.618 13.273 35.173 15.927c20.573 1.991 33.182-2.655 33.182-2.655s-35.173 40.482-102.201 13.936c-41.809-16.591-69.682-51.1-86.273-73.664-25.218 69.019-120.119 124.765-214.356 100.21-108.174-27.873-136.047-153.301-136.047-153.301s49.773 51.1 98.883 61.055c49.11 10.618 86.273-12.609 86.273-12.609s-35.837 11.282-73.001-1.991c-29.864-10.618-39.155-25.882-39.155-25.882s45.128 16.591 93.574-3.982c26.546-11.282 47.782-34.509 61.719-53.755-29.864 16.591-69.019 28.537-120.119 26.546-148.656-5.309-213.693-131.401-230.284-191.793-18.582-67.692-5.309-125.428-5.309-125.428s7.964 53.755 28.537 89.592c20.573 34.509 43.8 41.146 43.8 41.146s-38.491-45.791-47.782-100.874c-6.636-37.828-1.327-74.992 5.309-102.865l0.664-1.991c6.636-26.546 14.6-44.464 14.6-44.464s10.618 45.128 35.173 94.901l1.327 1.991c7.3 15.264 16.591 30.528 26.546 45.791 45.791 65.037 94.901 94.901 94.901 94.901s-12.609-15.264-20.573-39.155c-9.291-25.882-7.964-53.091-7.964-53.091s73.664 157.947 235.593 123.437zM405.485 185.239l15.927 112.819c0 0-26.546 3.982-60.391 15.264-35.173 11.946-57.073 27.873-57.073 27.873l-36.5-118.792c0 0 25.882-18.582 65.701-28.537 39.155-9.291 72.337-8.627 72.337-8.627zM230.284 71.756c0 0 25.882-25.218 89.592-35.173 61.055-9.291 96.228 0.664 96.228 0.664l1.991 122.11c0 0-39.819-3.982-90.919 8.627s-74.992 32.518-74.992 32.518l-21.9-128.747zM325.185 6.719c-48.446 5.973-83.619 21.9-108.174 38.491-9.291-82.292-8.627-137.374-8.627-137.374s28.537-35.837 108.837-35.837c80.964 0.664 120.783 35.837 120.783 35.837s-6.636 39.155-9.955 102.201c-25.882-5.973-59.728-8.627-102.865-3.318z" />
<glyph unicode="&#xe612;" glyph-name="abta" horiz-adv-x="1023" d="M464.636-120.713c0 6.858 0 13.716 0 21.003 0 322.759 0 645.519-0.429 967.849 0 16.717 2.143 24.003 22.289 26.147 66.009 6.858 129.018-8.573 190.312-27.861 80.583-25.718 151.735-70.296 208.315-133.304 57.865-64.295 101.586-137.162 121.731-223.746 11.573-50.15 18.431-100.3 15.431-151.307-6.001-105.872-38.148-202.743-105.443-286.326-45.006-55.722-96.871-103.3-159.879-137.591-49.721-27.004-102.871-44.578-158.594-53.15-43.292-6.429-86.584-15.002-133.733-1.715zM570.080 339.208c0-33.433 0-63.866 0-96.871 36.862 0 72.010-0.429 107.586 0.429 4.715 0 12.002 6.858 12.859 11.144 4.286 22.717 7.715 45.435 9.001 68.581 0.429 5.144-8.573 15.859-13.716 15.859-38.148 1.286-76.296 0.857-115.73 0.857zM687.096 526.52c-41.577 0-78.868 0-117.016 0 0-32.147 0-63.009 0-95.585 39.005 0 76.725-0.857 114.445 0.857 5.572 0.429 15.431 11.573 14.573 16.717-2.143 25.718-7.287 51.436-12.002 78.011zM802.398 337.922c-4.286-32.576-8.573-63.437-13.288-96.013 33.862 0 65.152-0.429 96.442 0.429 4.715 0 13.288 3.429 14.145 6.858 8.144 28.718 14.573 57.437 22.289 88.727-43.292 0-80.583 0-119.588 0zM921.129 431.792c-7.287 30.861-13.716 60.008-21.003 88.727-0.857 3-6.429 6.429-9.859 6.429-33.862 0.429-67.724 0.429-102.014 0.429 5.144-33.862 9.859-63.866 14.573-95.585 37.72 0 75.868 0 118.302 0zM571.365 145.038c0-54.436 0-106.301 0-162.88 38.577 52.293 68.152 103.3 87.869 162.88-31.719 0-60.008 0-87.869 0zM658.806 624.248c-23.575 57.437-48.007 109.73-88.298 159.022 0-56.579 0-107.158 0-159.022 29.147 0 56.579 0 88.298 0zM845.689 146.324c-24.432 0-42.006-1.715-59.58 0.429-21.86 3-30.004-9.001-37.291-25.718-12.43-27.432-26.147-54.008-39.434-81.011-2.143-4.715-4.286-9.43-6.429-14.145 57.437 26.147 103.729 63.866 142.734 120.445zM700.812 746.836c20.146-42.006 38.148-79.725 56.579-117.445 1.286-3 6.429-6.001 9.859-6.001 24.003-0.429 48.007-0.429 77.582-0.429-41.577 53.15-85.726 93.013-144.020 123.874zM418.773 430.078c0-32.576 0-62.58 0-94.299-136.733 0-273.467 0-412.343 0-9.43 30.004-7.715 61.723-0.857 94.299 138.019 0 274.753 0 413.201 0zM417.915 883.57c0-101.586 0-201.457 0-295.327-66.438 66.438-135.447 135.447-205.743 205.743 57.008 43.292 126.875 74.582 205.743 89.584zM417.487 188.33c0-100.728 0-200.171 0-300.042-63.437 3.429-180.025 60.008-208.315 91.727 69.438 69.010 138.448 138.019 208.315 208.315zM15.859 482.371c-2.143 45.864 57.437 176.596 93.013 206.6 68.581-68.581 137.162-137.162 206.6-206.6-99.442 0-198.456 0-299.613 0zM314.615 287.772c-69.438-69.438-138.448-138.448-207.886-207.886-47.578 60.437-76.296 130.304-93.87 207.886 102.443 0 202.314 0 301.756 0zM417.487 481.942c-25.718-6.001-45.006-0.429-64.723 19.717-71.581 74.582-145.735 146.592-220.316 221.602 14.145 11.573 27.432 22.717 43.292 35.576 1.286-1.286 6.858-6.429 12.002-11.573 70.724-70.724 140.591-141.448 212.172-211.315 15.859-15.859 24.003-31.29 17.574-54.008zM134.59 49.453c71.153 71.153 144.877 142.734 216.030 216.459 19.288 20.146 39.005 28.718 66.866 21.86 4.286-18.431 2.143-33.862-14.145-49.721-77.582-75.868-153.45-153.021-230.175-229.318-12.43 13.288-24.432 25.718-38.577 40.72z" />
<glyph unicode="&#xe613;" glyph-name="atol" d="M503.836-128c-1.633 1.27-2.721 3.084-4.899 3.084-3.084 0.181-6.169 0-9.434 0-5.987 0-11.793 0.181-17.78 0.363-11.43 0.544-23.042 0.544-34.472 2.359-5.624 0.907-11.249 2.359-16.873 3.447s-11.43 2.177-17.055 3.447-22.679 5.443-33.746 9.072c-11.43 3.629-22.86 6.894-34.291 10.523-2.721 0.907-5.443 1.633-8.164 2.54s-5.262 1.451-7.62 3.084c-2.177 1.633-4.536 2.54-6.894 3.629-2.721 1.27-5.624 2.54-8.346 3.81-10.342 4.536-20.502 9.434-30.843 14.152-4.717 2.177-9.253 4.536-13.607 7.257s-7.983 6.169-12.337 8.89c-8.709 5.262-17.78 9.072-25.582 15.785-7.076 6.169-14.152 13.063-23.042 16.51-0.907 0.363-2.359 0.544-3.084 1.089-0.907 0.544-1.27 1.451-1.996 1.996-2.177 1.814-4.536 3.81-6.713 5.624-4.354 3.629-8.527 7.257-12.7 11.067-8.346 7.439-16.692 15.059-24.493 23.042-15.785 15.785-30.299 32.658-44.088 50.257-6.894 8.709-13.245 17.78-19.413 27.033-6.169 9.616-11.793 19.595-17.599 29.573-11.612 19.957-23.042 40.096-30.843 61.868-3.81 10.704-7.439 21.409-11.249 32.295-3.81 11.067-7.62 22.135-10.342 33.383-2.721 11.43-4.717 23.042-6.894 34.653-1.089 5.806-2.177 11.612-3.266 17.417s-1.089 11.612-1.451 17.417c-0.181 5.806-1.089 11.249-2.177 17.055s-1.814 11.612-2.177 17.417c-0.726 11.612-0.181 23.405 0.181 35.016 0.181 5.806 0.181 11.612 0.181 17.417 0 2.721-0.363 5.443 0 8.164 0.181 2.903 0.907 5.806 1.451 8.709 0.544 2.54 1.27 5.262 1.633 7.802 0.363 2.177 0 4.173-0.181 6.35-0.363 4.354-0.363 8.527 3.266 11.612-0.907 11.067 2.359 21.772 4.717 32.295 1.27 5.443 1.814 11.067 3.084 16.51s2.721 10.886 4.354 16.329c6.35 21.409 13.245 42.636 21.953 63.138 8.89 20.502 19.595 40.096 30.662 59.51 5.624 9.797 11.249 19.413 17.599 28.666 6.532 9.434 13.607 18.506 20.683 27.578s14.333 18.143 22.135 26.67c7.076 8.164 13.789 16.692 21.59 24.13 7.983 7.62 16.692 14.515 25.038 21.772 8.527 7.257 17.055 14.333 25.763 21.227 17.78 13.789 37.012 25.582 56.788 36.286 19.776 10.886 40.096 20.683 60.961 29.392 10.523 4.354 21.227 8.346 32.113 11.793 10.886 3.266 21.953 6.169 32.839 9.979 4.899 1.814 10.16 2.721 15.24 3.447s10.16 1.633 15.24 1.996c4.717 0.363 9.616 0.544 13.97 2.177 1.996 0.726 3.81 2.54 5.987 2.903 2.721 0.363 5.624 0.363 8.346 0.544 11.793 0.907 23.586 2.177 35.379 2.721 5.987 0.363 11.793 0.544 17.78 0.544s11.793-0.544 17.78-0.544c5.987 0 11.793 0.181 17.78 0.181s11.974-0.363 17.962-0.907c5.987-0.363 11.974-0.907 17.962-1.27 2.903-0.181 5.806-0.544 8.709-0.726 1.451-0.181 2.903-0.181 4.354-0.363 0.726 0 1.451-0.181 2.177-0.181 0.544-0.544 1.089-1.089 1.633-1.451 3.629-2.54 7.983-2.359 12.156-2.359 1.996 0 4.173 0 6.169-0.363 2.359-0.363 4.354-1.27 6.35-2.359 3.991-1.996 8.89-1.814 13.245-1.996 2.177-0.181 4.536-0.181 6.713-0.544 2.54-0.544 4.899-1.451 7.257-2.359 20.32-7.439 41.911-10.886 61.142-21.046 4.899-2.54 9.979-4.717 15.24-6.713 5.080-1.814 10.523-3.084 15.603-5.443 4.717-2.177 8.89-5.262 13.245-7.802 4.899-2.721 9.979-5.262 14.877-7.983 9.979-5.443 19.776-11.249 29.392-17.417 4.899-3.084 9.616-6.169 14.333-9.434 4.536-3.084 9.253-5.806 13.789-8.89 9.616-6.169 17.78-14.515 26.308-22.135 4.173-3.629 8.164-7.257 12.519-10.523 3.991-3.084 8.164-5.987 11.612-9.797 7.439-8.346 14.696-16.873 22.135-25.038 7.439-8.346 14.877-16.692 21.953-25.582 13.97-17.417 26.489-36.286 37.919-55.337 11.612-19.232 21.772-39.189 31.388-59.691 4.717-10.342 9.253-20.865 13.063-31.569s6.532-21.772 9.616-32.658c3.084-11.067 6.35-21.953 8.709-33.202 2.359-11.43 3.81-23.042 5.443-34.472 0.907-5.806 1.633-11.612 2.177-17.417 0.181-2.721 0.363-5.624 0.544-8.346 0-1.451 0-2.903 0-4.173s-0.363-2.359 0.726-3.084c0.726-0.544 1.633-0.907 2.359-1.633 0-1.451 0-2.903 0-4.354 0-3.084 0-6.35 0-9.434 0-5.987 0-12.156 0-18.143 0-12.156 0-24.13 0-36.286 0-1.451 0-2.903 0-4.354-0.726-0.907-1.451-1.451-2.177-2.359-1.633-1.996-1.27-5.262-1.451-7.62-0.363-5.987-0.907-11.974-1.451-17.78-2.54-23.405-7.439-46.628-13.426-69.125-2.903-10.886-6.713-21.772-10.16-32.658-3.266-10.704-6.894-21.227-11.612-31.206-2.359-5.080-4.899-9.797-7.076-15.059-2.177-5.080-3.991-10.16-6.169-15.24-4.536-10.342-10.342-20.32-15.966-30.118-21.953-38.826-49.712-75.113-82.007-105.956-8.164-7.802-16.692-15.422-25.038-23.042-4.173-3.81-8.346-7.62-12.519-11.249-3.991-3.447-8.527-6.169-12.7-9.253-4.354-3.084-8.164-6.713-12.519-9.797-4.354-3.266-8.89-5.987-13.426-8.89-9.253-5.806-18.325-12.156-27.578-17.78-19.050-11.612-39.371-20.865-60.054-29.392-20.683-8.709-41.729-17.055-64.045-21.227-5.262-1.089-10.523-2.721-15.603-4.173-5.262-1.451-10.523-2.177-15.966-2.903-5.080-0.726-10.342-1.27-15.059-3.266-4.899-1.996-10.16-0.726-15.422-1.633-2.54-0.544-4.536-1.996-6.894-2.721-2.721-0.907-5.443-1.089-8.164-1.27-5.624-0.181-11.249-0.181-16.873-0.181-2.903 0-5.624 0-8.527 0-1.451 0-2.903 0-4.354-0.181-1.089 0-1.996-1.089-2.721-1.814-1.089-1.089-1.451-1.451-2.903-1.451s-2.903 0-4.354 0c-3.084 0-6.35 0-9.434 0-4.354 0.726-9.072 0.726-13.97 0.726-1.451 1.089 9.979 0 0 0zM511.637-91.895c11.974 0 23.949-0.363 35.923 0.181 11.43 0.544 22.679 1.089 33.928 3.81 4.899 1.089 9.797 0.907 14.696 1.27 2.177 0.181 4.354 0.544 6.35 1.451 2.54 1.089 4.717 2.359 7.439 2.903 5.080 0.907 10.523 0.363 15.422 2.359 4.717 1.996 9.253 4.173 14.333 5.624 5.262 1.451 10.523 2.177 15.785 3.447 5.443 1.27 10.704 2.903 15.966 4.717 10.523 3.629 20.502 7.983 30.662 12.7 21.046 9.616 41.548 20.683 61.687 32.113 19.413 11.067 37.012 24.675 53.885 39.008 17.055 14.333 32.839 30.118 47.898 46.446 7.62 8.164 14.877 16.692 22.135 25.219 3.629 4.173 6.894 8.346 9.797 12.882 2.903 4.717 5.987 9.434 9.072 13.97 11.067 16.51 21.59 33.383 30.662 50.982 7.983 15.603 15.785 31.569 21.046 48.442 3.084 9.979 7.439 19.413 10.704 29.21 1.633 4.899 3.084 9.979 4.173 15.059 0.544 2.54 0.726 4.899 1.089 7.439 0.181 1.27 0.181 2.54 0.181 3.81 0 1.451 1.089 2.903 1.633 4.173 4.354 9.616 6.169 20.139 7.439 30.662 0.726 5.262 1.27 10.523 1.996 15.785s1.996 10.523 2.54 15.785c0.363 5.624-0.181 11.249-0.363 16.873-0.181 5.806 0.181 11.43 0.907 17.236s1.633 11.612 1.814 17.417c0.363 5.806-0.544 11.43-1.633 17.236s-1.451 11.43-1.451 17.417c0 5.624-0.363 11.612 0.181 17.417 0.181 1.089 0.363 2.177 0 3.266-0.363 1.27-0.907 2.359-1.451 3.447-0.907 2.721-1.814 5.443-2.359 8.164-1.089 5.262-1.814 10.704-2.54 15.966-0.726 5.443-1.451 10.704-2.903 15.966-1.27 4.536-1.451 9.253-2.54 13.789-0.544 2.177-1.451 3.991-2.54 5.987-1.27 2.359-1.996 5.080-2.359 7.802-0.544 2.359-0.726 4.899-1.451 7.257-0.726 2.721-1.996 5.443-3.084 8.164-4.173 10.886-7.439 21.953-11.612 32.658-3.991 10.704-8.89 21.046-13.97 31.206s-10.342 20.139-15.785 30.118c-5.443 9.797-11.612 19.232-18.143 28.485-13.063 18.506-26.67 36.831-42.092 53.522-14.877 16.147-31.025 31.206-47.898 45.176-34.653 28.666-72.936 53.341-114.302 71.303-20.865 9.072-42.455 16.147-64.408 22.316-11.067 3.084-22.135 5.987-33.565 7.62-5.080 0.726-10.342 0.907-15.603 1.633-5.080 0.726-9.797 3.266-14.877 3.991-5.262 0.544-10.523 0.544-15.603 1.633-2.54 0.544-5.262 1.27-7.802 1.814-2.903 0.544-5.806 0.363-8.709 0.363-11.612-0.363-23.223 0.363-34.835 0.544s-23.405 0-34.835-2.54c-2.359-0.544-4.717-1.27-7.257-1.27-2.54-0.181-5.080 0.181-7.439 0.363-4.717 0.363-9.072 0.726-13.607-0.907-4.354-1.633-8.89-1.451-13.426-1.996-2.177-0.181-4.173-0.544-6.169-1.451-1.089-0.363-1.996-0.907-2.903-1.633-0.726-0.544-0.726-0.726-1.633-0.726s-1.814 0-2.54 0c-10.704 0-20.865-3.266-31.025-6.532-5.080-1.633-9.979-3.266-15.24-4.536-5.443-1.451-10.886-2.721-16.329-4.536-10.886-3.629-21.409-7.983-31.932-12.7-20.865-9.072-40.641-19.776-60.054-31.932-9.616-5.987-19.232-12.156-28.485-19.050-8.164-6.713-16.51-13.97-25.582-20.32-4.173-3.084-8.527-6.169-12.337-9.434-4.173-3.447-7.62-7.439-11.43-11.43-7.62-7.983-15.603-15.603-23.223-23.405-7.802-7.983-15.24-16.329-21.953-25.219-7.076-9.072-13.607-18.506-20.502-27.94-3.266-4.536-6.532-8.89-9.434-13.607-2.903-4.536-5.443-9.253-7.983-13.97s-5.262-9.253-8.346-13.789c-2.721-3.991-5.080-7.983-7.076-12.519-1.996-4.354-3.629-8.709-5.806-12.882-1.089-1.996-2.177-3.991-3.266-5.806-0.544-0.907-1.27-1.814-1.996-2.721s-2.177-1.996-2.359-3.266c-1.633-10.704-6.713-20.32-10.523-30.299-8.164-21.409-14.152-43.906-18.687-66.223-1.089-5.624-1.814-11.067-2.177-16.692-0.181-2.54-0.363-5.080-0.726-7.62-0.363-2.721-1.451-5.262-2.177-7.983-1.451-5.262-1.27-10.704-1.996-15.966-0.726-5.624-2.54-11.067-2.903-16.692-0.544-5.624 0-11.43 0-17.055-0.181-5.806-0.363-11.43-0.544-17.236s0-11.43 0.544-17.236c0.363-2.721 0.726-5.443 1.27-8.164 0.544-2.903 1.633-5.624 1.996-8.527 0.907-5.262 0.363-10.704-0.544-15.966-0.726-4.717 0.907-8.346 2.359-12.7 1.633-4.536 0.363-9.072 1.451-13.607 0.544-2.359 1.27-4.717 1.814-7.076 0.726-2.721 0.907-5.443 1.27-8.164 1.633-11.43 4.536-22.498 7.802-33.565 3.084-11.067 6.169-21.953 10.16-32.658s8.709-21.227 13.245-31.751c4.173-9.979 8.89-19.776 13.97-29.392 9.979-19.050 21.772-37.193 34.291-54.792 6.35-8.89 12.7-17.417 19.413-25.945s14.877-15.785 22.498-23.405c3.991-3.991 8.164-7.983 12.156-11.974 3.81-3.991 7.439-8.164 11.43-11.974 8.164-7.802 16.692-15.059 25.4-21.953s17.78-13.607 26.852-20.139c8.89-6.532 17.78-12.882 27.215-18.687 18.506-11.067 38.464-19.595 57.695-29.21 2.359-1.089 4.717-2.359 6.894-3.447 2.54-1.27 4.899-2.903 7.62-3.266 5.443-0.907 10.704-2.359 15.966-4.173 10.523-3.266 20.683-7.439 31.388-10.16 10.16-2.54 20.502-4.717 30.843-6.894s20.683-4.899 31.025-6.169c10.342-1.27 20.683-1.451 31.025-1.633 10.523-1.089 20.865-1.089 31.388-1.089zM705.043 288.748c-0.363-5.080 0.363-10.16-0.363-15.24-0.363-2.359-1.089-4.173-1.996-6.169-1.089-2.359-1.451-4.899-1.451-7.439 0-2.359 0-4.717-0.544-7.076-0.544-2.54-2.177-4.354-3.084-6.713-1.633-4.173-0.907-9.072-1.27-13.607-0.181-2.359-0.726-4.536-1.451-6.894-0.726-2.54-1.089-5.080-1.27-7.62-0.363-4.899-0.181-9.979-1.27-14.877-0.544-2.359-1.633-4.536-2.54-6.713-0.907-2.721-1.27-5.443-1.633-8.346-0.544-5.443-0.363-10.886-2.54-15.966-3.81-9.434-3.81-19.595-4.717-29.755-0.181-1.27-0.181-2.721-0.363-3.991-0.726-0.181-1.27-0.544-1.996-0.726-1.814-0.726-3.447-1.451-5.262-1.996-1.996-0.544-2.54 0.363-4.173 1.27-2.177 1.27-4.536 1.633-6.894 1.633-2.177 0-4.354-0.181-6.35 0-2.903 0.363-5.624 1.089-8.346 1.814-5.443 1.27-10.886 1.996-16.329 3.266-5.624 1.27-11.43 1.996-17.055 3.084-5.806 0.907-11.612 1.996-17.599 3.084-5.443 1.089-10.886 2.177-16.51 2.54-2.54 0.181-4.899 0.363-7.257 1.089-2.54 0.907-4.536 2.359-7.257 2.721-2.359 0.363-4.899 0.181-7.257 0.544-2.721 0.363-5.080 1.633-7.62 2.177-5.080 1.089-10.342 0.907-15.422 1.633-2.359 0.363-4.717 1.089-7.076 1.633-2.54 0.363-5.080 0.544-7.62 0.726-4.717 0.181-9.616 0.181-14.333 1.814-1.996 0.726-3.991 1.814-6.169 2.359s-4.536 0.544-6.894 0.544c-4.173 0-8.709-0.181-12.519 1.996-0.907 0.544-1.814 1.27-2.54 1.996-1.27-0.363-2.54-0.544-3.81-0.544-2.54-0.181-5.262 0.181-7.802 0.544-4.899 0.907-9.797 2.721-14.877 3.447-5.443 0.726-10.886 1.089-16.329 2.177-2.721 0.544-5.262 1.27-7.802 2.177-2.359 0.726-4.717 1.814-7.257 1.996-4.354 0.544-8.89-0.363-13.426 0.726-1.089 0.181-1.996 0.544-3.084 1.089-0.907 0.544-1.996 1.633-3.084 1.451-2.721-0.181-5.443 0-7.983 0.181-10.342 1.089-19.957 4.899-30.299 6.169-2.54 0.363-4.899 0.363-7.439 0.363-0.544 0-1.27 0-1.814-0.181-0.363 0.363-0.907 0.726-1.451 1.089-1.089 0.726-2.177 1.27-3.447 1.633-4.354 1.451-9.072 1.089-13.607 1.451-2.177 0.181-4.536 0.363-6.532 1.089-2.359 0.726-4.536 1.814-7.076 2.359-4.899 1.089-9.979 0.907-14.877 1.27-5.080 0.363-9.797 2.177-14.877 2.903-5.080 0.907-10.16 1.27-15.24 2.177-2.359 0.363-4.717 1.089-6.894 1.814-1.089 0.363-2.177 0.907-3.266 1.451-0.544 0.363-1.089 0.544-1.633 0.907 0.181 0.907 0.363 1.814 0.544 2.721 0.907 5.624 1.996 11.067 3.084 16.692 2.177 11.067 3.084 22.316 5.806 33.383 1.27 5.443 3.447 10.523 3.991 15.966s0.181 11.067 1.814 16.51c1.451 4.717 1.814 9.616 1.996 14.515 0.181 4.717 0.363 9.616 2.54 13.789 3.991 7.983-0.907 18.143 5.624 25.219 0.726 0.726 0 2.359 0 3.447-0.181 1.27-0.181 2.359 0 3.629 0.181 2.54 0.726 5.080 1.27 7.62 1.27 4.899 2.54 9.616 2.721 14.696 0.181 5.624 2.177 11.249 3.266 16.692 1.089 5.987 1.996 11.793 3.084 17.78 1.996 11.793 3.991 23.586 5.987 35.379 1.814 11.612 4.173 23.223 6.169 34.835 0.907 5.624 1.451 11.43 2.721 17.236 0.544 2.721 1.089 5.262 1.996 7.983 0.726 2.721 1.996 5.262 2.721 7.983 1.089 3.991 0 8.164 0.181 12.337 0 1.996 0.544 3.81 1.451 5.624 0.544 0.907 1.27 1.814 2.177 2.54-0.181 1.451-0.181 3.084-0.181 4.717 0.181 5.443 1.633 10.704 2.721 16.147 1.089 5.806 1.814 11.612 2.721 17.417 1.814 11.793 3.81 23.405 5.806 35.198 1.814 11.793 3.81 23.405 5.806 35.198 1.996 11.43 4.536 22.86 6.532 34.291 0.907 5.624 1.996 11.249 3.084 16.873 1.089 5.080 3.266 10.342 3.629 15.603 0.363 4.354-0.181 9.072 1.814 13.245 0.544 0.907 0.907 2.359 2.177 2.177s2.721-0.544 3.991-0.726c2.903-0.544 5.806-1.089 8.89-1.633 11.249-1.996 22.679-3.991 33.928-5.987 5.806-1.089 11.43-1.996 17.236-3.084 2.721-0.544 5.624-0.907 8.346-1.451 0.907-0.181 1.814-0.181 2.54-0.726 0.907-0.907 1.814-1.814 2.721-2.721 1.27-1.27-1.089-4.899-1.996-6.35-1.451-2.54-2.903-4.899-4.173-7.439-2.54-4.899-4.899-9.797-7.076-14.696-4.354-9.979-7.983-20.32-11.793-30.662-1.814-5.080-3.629-10.342-5.624-15.422-0.907-2.359-1.996-4.899-2.54-7.439-0.544-2.721-0.726-5.624-1.089-8.527-0.726-6.169-2.54-12.337-3.447-18.506-1.996-14.515-2.721-29.392-2.721-43.906 0-6.35 0-12.7 0.726-19.050 0.726-7.257 2.54-14.515 3.629-21.772 1.451-9.797 3.084-19.776 6.894-28.848 0.907-2.177 1.996-4.354 3.084-6.532 0.544-1.089 1.27-2.177 1.996-3.084 0.363-0.544 0.726-1.089 1.089-1.451 0-0.726 0.181-1.451 0.363-2.359 0.726-4.536 1.814-9.072 3.629-13.426 6.532-17.055 19.050-31.388 27.215-47.717 4.173-8.527 12.156-14.515 18.325-21.59 3.447-3.81 6.35-7.983 9.797-11.793 3.629-3.81 7.257-7.62 11.249-11.067 7.802-7.076 15.603-14.152 23.768-21.046 8.346-6.894 17.417-12.882 26.852-18.325s18.869-11.067 29.029-15.059c10.16-4.173 20.683-7.257 31.025-10.886 4.536-1.633 9.072-3.266 13.426-5.080 2.177-0.907 4.173-1.451 6.532-1.814 2.54-0.181 5.080-0.181 7.62-0.544 2.359-0.363 4.536-1.451 6.894-2.177 2.177-0.726 4.354-1.27 6.713-1.633 4.899-0.907 9.797-1.089 14.877-1.27 4.717-0.181 9.434-0.363 14.333-1.089s9.979-1.814 14.877-2.54c4.717-0.726 9.616-0.907 14.333-0.181 3.447 0 7.802 0.907 12.156 1.633-0.363-7.257-4.899-0.907 0 0zM596.729 242.302c-2.903 7.802-7.802 14.877-14.515 19.957-6.169 4.717-13.607 7.62-21.046 9.253-9.979 2.359-20.32 2.721-30.481 2.54-5.806-0.181-11.612-0.363-17.417-0.544-1.451 0-2.721 0-4.173 0-0.907-0.907-1.996-1.996-2.903-2.903-2.177-1.996-4.173-4.173-6.35-6.169-0.907-0.907-2.359-1.814-2.359-3.084 0-1.451 0-2.903 0-4.354 0-3.084 0-6.169 0-9.253 0-1.451 0-2.721 0-4.173s0.544-1.996 1.27-3.266c1.27-2.177 2.54-4.173 3.991-6.169 2.54-3.447 6.35-5.806 9.979-7.802 3.991-2.177 8.346-3.991 12.7-5.262 4.354-1.451 8.89-2.359 13.607-2.903 4.354-0.544 8.709 0 12.882-1.27 1.996-0.544 4.173-1.27 6.169-1.089 2.721 0.181 5.443 1.089 8.164 1.451s5.262 0.363 7.983 0.544c1.27 0 2.721 0 3.81 0.544 1.451 0.907 2.721 1.814 4.173 2.721 1.814 1.27 3.629 2.54 5.443 3.629 1.633 1.089 2.359 3.266 3.084 5.080 1.996 4.173 3.991 8.346 5.987 12.519-7.983 21.409-3.084-6.35 0 0zM328.936 255.909c1.996 1.996 3.81 3.991 5.806 5.987 0.907 0.907 1.814 1.814 2.54 2.721 0.544 0.726 0.544 0.907 1.451 0.726s1.814-0.363 2.903-0.544c5.806-0.907 11.43-1.996 17.236-2.903 2.54-0.363 5.080-0.907 7.439-1.27 1.089-0.181 2.54-0.181 3.447-1.089 0.907-1.089 1.996-2.359 2.903-3.447 1.27-1.633 2.721-3.266 3.991-4.899 0.544-0.544 1.089-1.27 1.633-1.814 0.907-1.089 1.451-1.27 2.903-1.451 4.899-1.089 9.616-2.177 14.515-3.266 0.544-0.181 1.089-0.181 1.633-0.363 0.544 0.544 0.907 0.907 1.451 1.451 0.726 0.726 1.633 1.633 2.359 2.359 0.544 0.544-0.726 2.359-1.089 3.084-0.544 1.27-1.27 2.54-1.814 3.991-4.173 9.253-7.802 18.869-12.156 27.94-3.991 8.346-8.709 16.51-14.696 23.405-5.262 0-10.523 0-15.785 0-2.721 0-5.443 0-8.346 0-1.451-1.814-2.903-3.447-4.536-5.080-12.337-13.245-27.215-24.13-36.468-40.096 7.439-1.814 14.333-3.447 22.679-5.443 3.266 3.447-8.346 1.996 0 0zM603.079 205.834c23.042-3.991 45.902-7.802 68.944-11.793 1.633-0.363 4.173 3.266 5.080 4.717 0.907 1.633 1.633 3.266 1.27 5.262-0.363 1.814-1.27 3.266-2.54 4.536-0.907 1.089-1.633 1.451-2.903 1.814-1.633 0.363-3.266 0.544-4.717 0.907-11.612 2.177-23.042 4.536-34.653 6.713-0.544 0.181-0.907 0.181-1.451 0.363-1.089 0.181-0.726 0.544-0.544 1.633 0.181 1.451 0.363 2.903 0.544 4.173 0.363 2.54 0.726 5.080 0.907 7.62 0.726 5.080 1.27 10.16 1.996 15.059 0.363 2.359 0.544 4.717 0.907 6.894 0.181 0.907 0.363 1.089-0.363 1.814-0.363 0.363-0.907 0.907-1.27 1.27-0.726 0.726-1.451 1.451-2.177 2.177s-0.907 1.089-1.814 1.089c-1.451 0-2.903 0-4.173 0-2.721 0-5.443 0-8.164 0-2.359 0-4.899 0-7.257 0-0.544 0.181-0.907 0-0.907-0.726-0.181-0.726-0.363-1.451-0.544-1.996-0.363-1.451-0.726-2.721-1.089-4.173-1.27-5.262-2.54-10.523-3.629-15.785-1.996-10.523-3.084-21.046-1.451-31.569 23.949-3.991-2.903 17.962 0 0zM498.937 280.040c-28.122 9.434-57.695 11.249-86.724 15.422 0-2.721 0-5.262 0-7.983 0-0.544 0-1.27 0-1.814 0-0.907-0.363-1.089 0.726-1.27 1.633-0.363 3.266-0.726 4.717-1.089 5.624-1.27 11.43-2.54 17.055-3.629 1.451-0.363 2.721-0.544 4.173-0.907-0.181-1.27-0.363-2.721-0.726-3.991-0.544-2.903-0.907-5.806-1.451-8.709-0.907-5.624-1.814-11.43-2.721-17.055-0.363-2.721-0.907-5.624-1.27-8.346-0.181-1.089 0.181-0.726 1.089-1.089 0.544-0.181 1.089-0.363 1.633-0.544 1.27-0.363 2.721-0.726 3.991-1.089 2.359-0.726 4.899-1.27 7.257-1.996 1.27-0.363 2.54-0.726 3.81-1.089 0.726-0.181 1.27-0.363 1.996-0.544 0.544-0.181 0.907-0.181 1.451-0.363 0.544-0.363 0.907-0.181 0.907 0.363 1.814 5.262 4.173 10.342 5.262 15.966 1.089 5.080 0.907 10.16 2.359 15.24 0.544 1.996 1.27 3.991 2.177 5.806 0.544 1.089 1.089 1.996 1.633 2.903 1.089-0.181 2.177-0.363 3.447-0.544 4.899-0.726 9.616-1.451 14.515-2.177 2.359-0.363 4.536-0.726 6.894-1.089 0.544 0 0.907-0.181 1.451-0.181 1.089-0.181 0.726 0.363 1.089 1.089 0.181 0.907 0.363 1.996 0.726 2.903 0.544 2.54 2.54 3.991 4.536 5.806-29.755 9.979-2.721-2.54 0 0zM765.823 655.059c1.633-1.633 3.266-3.266 4.899-4.717 0.907-0.907 0-2.54-0.363-3.629-0.363-1.451-0.544-2.903-0.907-4.354-0.907-5.443-1.451-10.886-2.54-16.147-1.089-4.899-3.084-9.253-3.084-14.333 0-4.354 0.181-9.072-2.903-12.519-0.726-0.907-0.363-2.721-0.363-3.81 0-1.451-0.181-2.721-0.181-4.173-0.181-2.903-0.544-5.806-0.907-8.89-0.907-5.624-1.996-11.249-3.084-16.692-2.359-11.43-4.173-22.86-6.35-34.109-2.177-11.612-4.173-23.042-5.443-34.835-0.181-1.451-0.181-2.54-1.089-3.629-0.726-0.907-1.27-1.814-1.633-2.903-0.907-2.177-1.27-4.354-1.451-6.713-0.363-4.536 0.181-9.072-0.907-13.607-0.544-2.177-1.814-3.991-2.359-6.169-0.726-2.359-0.907-4.899-1.089-7.257-0.363-4.899-0.181-9.979-1.451-14.696-1.451-5.443-2.721-10.523-3.629-16.147-0.907-5.443-1.451-11.067-2.54-16.51-0.907-5.443-2.903-10.523-4.173-15.785-1.27-5.080-1.814-10.342-2.177-15.603s-0.726-10.523-1.633-15.785c-1.089-5.262-2.359-10.342-3.629-15.603-1.089-5.262-2.177-10.342-2.359-15.785 0-2.177 0.544-4.717-0.181-6.713-0.726-2.177-2.359-3.991-3.629-5.987-0.363-0.544-0.726-1.089-0.907-1.633-0.726 0-1.27 0.181-1.996 0.181-1.27 0.181-2.721 0.181-3.991 0.363-2.903 0.181-5.806 0.544-8.527 0.907-5.443 0.726-10.886 1.633-16.329 2.721-11.067 2.359-21.772 5.806-32.113 10.523-9.979 4.536-20.32 8.346-29.755 13.97-9.072 5.443-18.506 11.43-26.308 18.687-7.62 7.257-15.24 14.515-22.498 22.135-7.257 7.802-13.789 15.966-19.413 25.038-5.806 9.434-10.886 19.413-15.422 29.573-4.717 10.523-8.709 21.409-12.337 32.476-0.907 2.721-1.633 5.262-2.359 7.983-0.363 1.089-0.907 1.814-1.27 2.721-0.544 1.089 0.181 2.903 0.363 3.991 0.544 5.262-0.544 10.523-1.814 15.785-1.089 5.080-2.721 10.342-2.359 15.603 0.181 5.080 1.996 9.797 3.084 14.696 1.089 5.262 0.907 10.886 1.814 16.329s2.177 10.886 3.447 16.147c1.27 4.899 2.721 9.979 5.262 14.515 2.359 4.354 5.262 8.709 7.62 13.063 4.899 8.89 9.979 17.78 16.692 25.4 2.903 3.266 6.35 5.806 9.253 9.072 1.27 1.451 2.359 3.084 2.903 5.080 0.363 0.907 0.363 1.996 0.907 2.721 0.726 1.089 1.633 1.814 2.721 2.54 9.434 7.076 18.869 14.515 28.122 21.59 4.717 3.629 9.616 7.257 14.333 11.067 3.81 2.903 7.802 5.443 12.519 6.713 9.979 2.54 19.413-2.177 29.392-3.629 5.262-0.726 10.523-1.089 15.785-1.814 4.899-0.726 9.616-2.721 14.696-3.629 2.359-0.363 4.899-0.544 7.257-0.181 0.544 0.181 1.27 0.181 1.814 0.363 0.363-0.363 0.726-0.726 1.089-1.089 0.907-0.726 1.814-1.27 2.903-1.814 3.81-1.451 7.983-0.726 11.974-1.089 4.354-0.363 7.62-3.266 11.974-3.81 4.899-0.544 9.797 0 14.515-1.27 5.262-1.451 10.342-2.54 15.785-3.084 5.262-1.089 10.886-1.27 16.329-1.814 1.633-1.633-10.523 1.089 0 0zM836.763 67.22c-18.506 14.696-37.193 29.21-55.7 43.906-9.253 7.257-18.325 14.515-27.578 21.772-0.907 0.726-0.363 0.726 0.181 1.633 0.363 0.544 0.726 1.089 1.089 1.633 0.726 1.089 1.451 2.177 2.177 3.266 1.451 2.177 2.903 4.536 4.354 6.713 3.084 4.536 6.713 8.527 10.342 12.7 7.439 8.527 14.696 17.599 23.042 25.219 6.713 6.169 15.422 9.979 24.493 10.704s16.873-1.633 24.675-6.169c7.802-4.536 14.877-10.16 21.046-16.692 3.266-3.447 5.624-7.439 7.257-11.974 1.633-4.354 2.721-8.89 4.536-13.245 0.726-1.814 2.359-3.629 2.54-5.624 0.181-2.359-0.544-4.717-1.27-6.894-1.451-5.080-2.359-10.16-4.354-15.059-1.996-5.080-4.899-9.979-7.802-14.696-2.721-4.536-5.806-9.072-9.072-13.245-6.169-8.164-13.245-15.966-19.957-23.949-28.666 22.679 8.527 10.342 0 0zM844.383 92.077c5.987 6.894 11.43 14.696 13.97 23.586 1.27 4.173 1.633 8.709 1.451 13.063-0.181 2.359-0.363 4.536-0.907 6.713-0.181 1.089-0.363 2.359-0.907 3.447-0.726 1.089-1.27 1.996-1.996 3.084-9.797 14.333-23.223 25.945-40.278 30.118-2.54 0.544-5.080 1.089-7.802 1.451-3.266-0.907-6.713-1.814-9.979-2.903 0.544-0.544 1.089-0.907 1.633-1.451-7.62-7.439-15.059-15.059-22.679-22.498 21.772-19.050 44.995-36.468 67.493-54.611 12.156 14.152-22.86 18.325 0 0zM258.54 26.035c-9.434 0.544-18.687 2.177-27.396 5.806-7.983 3.266-15.422 8.164-21.772 13.97-7.076 6.35-12.337 14.515-15.966 23.405-1.814 4.354-3.084 8.709-4.354 13.245-1.27 4.899-1.27 9.434 0.181 14.333 2.359 8.346 7.076 16.329 12.156 23.223 4.717 6.35 10.523 12.156 17.417 15.966 3.629 1.996 7.62 3.629 11.612 4.717 2.177 0.544 4.173 0.907 6.35 1.27 2.359 0.363 4.536 1.27 6.894 1.996 2.177 0.726 4.354 1.089 6.532 0.907 2.359-0.181 4.717-1.27 7.076-1.996 4.354-1.451 8.527-2.721 12.7-4.354s8.164-3.629 11.793-6.532c3.81-3.084 6.713-7.076 10.16-10.523 3.447-3.629 7.257-7.076 10.16-11.067 3.084-4.536 5.443-9.616 6.894-14.877 2.721-9.979 1.633-20.502-1.996-30.118-3.629-9.797-9.072-18.687-17.236-25.219-4.717-3.81-9.797-7.257-15.059-10.16-4.717-2.721-10.704-5.443-16.147-3.991-20.683 1.089 6.169-1.633 0 0zM247.654 126.004c-3.81-3.447-7.257-7.257-10.886-10.704-3.629-3.266-7.983-5.624-11.612-9.072-3.084-3.084-5.624-6.713-8.346-9.979-1.27-1.451-2.721-2.903-4.354-4.173-0.363-0.363-0.907-0.544-1.27-0.907-0.181-0.726-0.181-1.451-0.363-2.177-0.363-1.633-0.544-3.266-0.907-4.717-0.907-4.717-1.633-9.616-2.54-14.333 2.177-4.354 4.536-8.709 6.713-13.063 0.907-1.633 1.633-3.266 2.54-4.899 1.996-1.089 4.173-2.177 6.169-3.084 1.996-1.089 3.991-1.996 5.987-3.084 1.089-0.544 2.177-1.089 3.447-1.814 1.451-0.726 2.359-1.27 3.991-1.089 16.51 1.451 30.662 10.16 41.185 22.86 2.721 3.447 5.262 6.894 7.439 10.704 1.089 1.814 2.177 3.81 3.266 5.624 0.544 0.907 1.089 1.996 1.633 2.903 0.544 1.089 0.181 2.721 0.181 3.991 0 5.443 0 10.704 0 16.147 0 0.726 0 1.451 0 2.177 0 0.907 0 0.726-0.726 1.089s-1.27 0.726-1.814 1.27c-1.27 1.089-2.177 2.359-3.084 3.81-3.084 4.899-5.443 9.253-11.43 10.886-8.164 1.996-16.873-0.363-25.219 1.633-5.987-5.624 9.434-2.359 0 0zM155.85 188.598c-10.886-2.903-19.595-9.797-29.029-15.603-2.359-1.451-4.536-2.721-7.076-3.81-1.089-0.544-2.177-1.089-3.447-1.451-0.907-0.363-1.27-0.907-1.814 0-0.544 0.726-0.907 1.633-1.451 2.359-3.447 5.624-6.713 11.249-10.16 16.873 19.957 11.612 39.915 23.405 59.872 35.016 10.342 5.987 20.502 11.974 30.843 18.143 0.544 0.363 1.27 0.726 1.814 1.089 0.363-0.544 0.726-1.089 1.089-1.633 0.726-1.089 1.451-2.177 2.359-3.266 1.633-2.359 3.084-4.717 4.717-7.076 2.903-4.536 5.624-9.434 8.164-14.152 2.177-3.81 4.173-7.802 6.169-11.793 1.089-1.996 1.996-3.991 3.084-5.987 0.544-1.089 1.089-1.996 1.451-3.084 0.544-1.089 1.633-2.359 1.633-3.629 0-1.996 0-3.81 0-5.806 0-1.089 0-1.996 0-3.084 0-1.451 0-1.996-0.907-3.084-2.359-3.084-4.717-6.35-7.076-9.434-1.089-1.451-2.359-1.814-3.991-2.721-1.451-0.907-3.084-1.633-4.717-2.359-3.266-1.633-6.713-2.903-10.342-3.266-1.814-0.181-3.81-0.181-5.624 0.181-2.359 0.363-3.991 1.633-5.987 2.903-3.991 2.54-7.802 5.262-11.793 7.802-9.253-18.506-18.687-37.193-27.94-55.7-3.629 5.624-7.076 11.249-10.704 16.873-0.907 1.27-1.633 2.721-2.54 3.991-0.544 0.726-1.089 1.633-1.451 2.359 0.363 0.726 0.726 1.451 1.27 2.177 1.633 3.084 3.266 6.169 4.899 9.072 6.35 13.245 12.882 25.582 18.687 38.101-1.089-0.544-0.907-0.907-0.544-1.089 0.907 0.726 1.814 1.451 2.721 2.359-0.363 0.363-0.726 0.726-1.089 1.089-0.363-0.363-1.633-1.633-1.089-2.359-15.966-4.354-0.363 0.544 0 0zM165.103 196.944c2.359-3.991 4.717-7.802 8.164-10.886 2.903-2.54 6.35-5.262 10.523-4.536 2.903 0.544 5.080 2.54 7.802 3.629 1.089 0.363 2.359 0.544 3.447 0.181 0.726-0.181 2.177 1.633 2.721 1.996 1.089 0.907 2.359 1.996 3.447 2.903 1.996 1.814 3.991 3.447 5.987 5.262 0.544 0.544 1.089 0.907 1.633 1.451-0.181 0.726-0.363 1.27-0.544 1.996-0.544 1.633-0.907 3.084-1.451 4.717-0.726 2.721-1.633 5.443-2.359 8.164-0.181 0.726-0.363 1.451-0.544 1.996-0.363 0.907-0.363 0.726-1.27 0.544-1.27-0.181-2.54-0.363-3.629-0.544-8.346-1.814-15.24-7.257-22.498-11.793-3.81-1.996-7.62-3.991-11.43-5.080 3.447-5.806 13.789 4.173 0 0zM593.826 754.665c-1.633 1.633-3.266 3.266-5.080 5.080-0.726 0.726-1.451 1.451-2.177 2.177 0 1.451 0 2.903 0 4.354 0 2.54 0 5.262 0 7.802 0 1.27 0 2.721 0 3.991 0 1.451-0.363 2.903 0.363 4.173 2.903 5.080 6.35 9.979 11.067 13.245 12.519 8.709 29.21 2.54 41.548-3.266 1.089-0.544 1.996-0.907 3.084-1.451s1.633-1.814 2.359-2.903c1.451-1.996 2.721-4.173 4.173-6.169 0.726-1.089 1.451-2.177 2.177-3.447 0.726-0.907 0.363-2.359 0.363-3.447-0.181-2.54-0.544-5.080-1.089-7.439-0.907-4.173-1.451-9.072-3.991-12.519-1.996-2.721-5.262-4.354-8.164-5.987 2.54-4.899 5.443-9.434 7.62-14.333 1.996-4.536 3.084-8.527 1.27-13.245-1.633-3.991-4.173-7.439-5.080-11.612-0.726-3.81-2.903-6.713-6.169-8.709-2.903-1.814-5.987-3.266-8.709-5.443-0.907-0.907-2.177-0.544-3.447-0.544-1.451 0-2.903 0-4.173 0-2.903 0-5.987 0-8.89 0-2.54 0-5.080 0-7.62 0-1.089 0-2.177 0-3.447 0-1.27 0.363-2.54 0.726-3.629 1.27-3.81 1.451-7.62 3.266-10.886 5.806-9.072 6.713-13.426 17.599-12.337 28.666 1.27 11.974 9.797 19.957 20.865 23.949-3.084 3.084-16.329-5.806 0 0zM619.952 711.303c1.451 4.173 2.903 8.346 4.536 12.7 0.726 1.996 1.27 3.81 1.996 5.806 0.181 0.363 0.181 0.726 0.363 1.089 0.363 0.907-0.181 0.907-0.726 1.451-0.726 0.726-1.451 1.451-2.359 2.177-1.27 1.27-2.54 2.54-3.991 3.81-0.544 0.544-1.089 1.089-1.814 1.633-0.726 0.726-2.177 0.363-3.266 0.363-2.359 0-4.717 0-6.894 0-1.089 0-2.177 0-3.266 0s-1.814-1.27-2.54-1.996c-1.633-1.633-3.084-3.084-4.717-4.717-1.089-1.089-0.907-1.451-0.907-2.903 0-1.089 0-2.177 0-3.447 0-1.996 0-3.991 0-5.987 0-1.814 2.177-3.629 3.266-5.080 1.089-1.27 2.177-2.721 3.447-3.991 0.726-0.907 0.907-1.089 1.996-1.089 0.907 0 1.814 0 2.721 0 3.991 0.181 7.983 0.181 12.156 0.181 2.54 7.439-6.532 0 0 0zM619.77 784.601c-3.084-1.814-6.35-3.81-9.434-5.624-1.451-0.907-2.903-1.814-4.354-2.54 0-1.814 0-3.81 0-5.624 0-1.27-0.363-3.447 0.363-4.536 1.27-1.451 2.54-3.084 3.81-4.536 1.089-1.27 2.177-2.721 3.266-3.991 0.726-0.726 3.084-0.363 4.173-0.363 2.359 0 4.899 0 7.076 1.27 1.27 0.726 2.177 1.814 3.084 2.903 0.907 1.451 0.544 3.266 0.544 5.080 0 1.996 0 3.991 0 5.806 0 0.907 0 1.814 0 2.721 0 1.089-0.726 1.451-1.451 2.177-2.177 2.359-4.536 4.717-7.076 7.257-5.262-3.084 3.629-3.629 0 0zM483.334 769.361c2.54-9.072-0.181-17.417-4.173-25.4-1.814-3.629-3.991-7.439-5.443-11.249-1.814-1.27-3.81-2.54-5.624-3.81-1.089-0.726-1.996-1.451-3.084-2.177-0.907-0.726-2.54-2.359-3.81-2.359-3.447-0.181-7.257 1.27-10.16-1.089-0.363-0.363-0.726-0.726-1.089-1.089-0.544-0.544-0.726-0.363-1.451-0.181-1.089 0.181-2.177 0.363-3.266 0.544-2.54 0.544-4.899 0.907-7.439 1.451s-5.080 0.907-7.62 1.451c-1.451 0.181-2.54 0.363-3.629 1.27-0.907 0.907-1.996 1.996-2.903 2.903-3.81 3.81-7.802 7.802-11.612 11.612-0.907 0.907-1.814 1.814-2.903 2.903-0.726 0.726-0.544 2.359-0.544 3.447 0 1.633-0.181 3.447 0.181 5.080 0.363 2.54 1.814 4.536 3.266 6.532 0.544 0.907 5.624-0.726 6.713-0.907 2.721-0.544 5.443-1.089 8.164-1.633 0.726-0.181 1.27 0 1.633-0.726 0.181-0.544 0.544-1.089 0.726-1.633 0.544-1.089 1.089-2.177 1.451-3.447 1.27-2.721 2.359-5.262 3.629-7.983 0.363-0.907 0.181-1.27 1.27-1.27 0.726 0 1.451 0 1.996 0 1.451 0 2.721 0 4.173 0 2.903 0 5.987 0 8.89 0 0.726 0 1.451 0 2.177 0 0.907 0 0.907 0.181 1.451 0.907 0.726 0.907 1.451 1.633 2.177 2.54 1.27 1.814 2.54 3.81 3.266 5.806 1.633 3.991 1.814 8.346 1.089 12.519-0.544 2.359-1.27 4.536-2.359 6.713-0.544 1.27-1.27 2.359-1.996 3.629-1.27 0.363-2.54 0.726-3.81 1.089-3.266 0.907-6.532 1.996-9.979 2.903-0.907 0.363-1.633 0.726-2.359 0-0.544-0.544-1.27-1.089-1.814-1.814-1.089-1.089-2.177-2.177-3.266-3.084-0.363-0.363-0.726-0.726-1.089-1.089-0.544-0.544-1.633 0.181-2.359 0.363-1.814 0.544-3.447 0.907-5.262 1.451-3.629 1.089-7.257 1.996-10.886 3.084 3.447 11.249 7.076 22.498 10.523 33.565 1.814 5.624 3.447 11.067 5.262 16.692 0.181 0.726 0.363 1.27 0.726 1.996 0.363 0.907 0 1.451 1.089 1.27 1.451-0.181 2.721-0.363 4.173-0.544 2.903-0.363 5.987-0.726 8.89-1.27 11.43-1.633 23.042-3.447 34.291-6.169 2.721-0.726 5.443-1.451 8.164-2.177 0.726-0.181 1.451-0.363 1.996-0.544-0.181-0.544-0.363-1.089-0.544-1.814-0.363-1.27-0.726-2.721-1.089-3.991-0.726-2.359-1.27-4.899-1.996-7.257-0.181-0.726-0.363-1.27-0.544-1.996-0.181-0.907 0-1.451-1.089-1.27-1.451 0.363-3.084 0.544-4.536 0.907-9.253 1.814-18.506 3.447-27.759 5.262-2.359 0.363-4.536 0.907-6.894 1.27-0.544 0-0.907 0.181-1.451 0.181-0.181-0.726-0.544-1.27-0.726-1.996-0.544-1.27-0.907-2.54-1.451-3.81-1.814-4.717-3.629-9.434-5.443-14.152 4.717 0.726 9.253 1.996 14.152 2.359 4.717 0.363 8.89-1.27 12.882-3.629 4.173-2.359 7.983-5.624 11.067-9.253 2.903-3.266 5.262-7.257 7.983-10.886 4.354-15.24-3.629 4.717 0 0zM486.781 717.834c1.27 8.346 4.899 16.147 11.067 22.135 2.721 2.721 5.806 5.080 9.072 7.076 4.717 2.903 9.253 5.987 13.97 8.89s9.616 5.443 14.696 7.62c3.629 1.633 7.076 3.991 9.434 7.257 2.359 3.084 3.81 6.532 4.536 10.342 0.181 0.907 0.363 1.996 0.544 2.903 0.181 0.726 0.181 0.907-0.363 1.451s-0.907 0.907-1.451 1.451c-2.177 1.996-4.173 3.991-6.35 5.987-0.907 0.907-3.266 3.81-4.536 3.81-1.451 0-2.903 0-4.354 0-1.814 0-3.629 0-5.624 0-0.907-1.451-1.814-3.084-2.54-4.536-1.996-3.447-3.81-6.894-5.806-10.16-0.544-1.089-0.544-1.27-1.814-1.27-1.089 0-2.177 0-3.084 0-1.996 0-3.991 0-5.987 0-0.907 0-1.814 0-2.721 0-0.726 0.544-1.27 1.089-1.996 1.814-1.27 1.27-2.721 2.359-3.991 3.629 1.633 3.81 3.266 7.62 4.717 11.43 0.726 1.814 1.451 3.629 2.177 5.443 0.363 0.726 0.544 1.633 1.27 1.996 0.726 0.544 1.633 1.089 2.359 1.633 3.266 2.177 6.35 4.354 9.616 6.532-0.726-0.181 0 0.181 0 0.181 0.544 0.181 1.089 0.181 1.814 0.181 1.27 0 2.54 0 3.629 0 2.177 0 4.354 0 6.532 0 3.084 0 6.169-0.181 9.072-0.726 6.532-1.27 12.7-4.536 18.687-7.439 1.089-0.544 1.27-1.089 1.996-2.177 0.363-0.726 0.907-1.633 1.27-2.359 1.089-1.996 1.996-3.991 3.084-5.987 1.089-2.177 2.177-4.354 3.447-6.532 0.363-0.544 0.726-1.27 0.907-1.814 0-0.544-0.181-1.089-0.181-1.451-0.181-1.27-0.363-2.54-0.544-3.991-0.907-5.262-1.633-10.704-2.54-15.966-0.363-2.359-2.177-4.354-3.81-5.987-1.633-1.814-3.447-3.447-5.443-4.899-6.169-4.717-13.426-7.983-20.32-11.067-7.983-3.629-15.966-7.076-23.768-10.523 10.704-1.996 21.227-3.991 31.932-5.987 2.359-0.363 4.717-0.907 7.076-1.27 1.27-0.181 2.359-0.363 3.629-0.726 0.544-0.181 1.27-0.181 1.814-0.363 1.27-0.181 1.27-0.181 1.27-1.451 0-2.721 0-5.262 0-7.983 0-1.451 0-2.903 0-4.173 0-0.907 0.181-1.27-0.544-1.814s-1.27-1.27-1.996-1.814c-0.363-0.363-0.726-0.726-1.27-1.089-0.544-0.544-1.089-0.181-1.633 0-1.451 0.181-2.721 0.544-4.173 0.726-3.084 0.544-5.987 1.089-9.072 1.633-5.806 1.089-11.612 2.177-17.417 3.266-11.612 2.177-23.223 4.354-34.835 6.532-0.544-0.544-1.089-0.363-1.451-0.363 2.359 15.24 23.042-4.354 0 0zM73.843 274.415c-1.633 5.080-3.266 10.16-5.080 15.422-0.363 1.27-0.907 2.721-1.27 3.991-0.363 1.089-0.907 1.633-0.181 2.721 1.633 2.177 3.81 2.177 6.35 2.903 11.249 2.903 22.316 6.713 33.565 9.797 11.612 3.084 23.223 5.987 34.653 9.072 5.624 1.451 11.43 3.084 17.055 4.717 2.721 0.726 5.443 1.451 8.164 2.359 0.726 0.181 1.451 0.363 1.996 0.544 1.089 0.363 0.907-0.181 1.27-1.089 0.544-1.451 1.089-2.903 1.633-4.354 3.81-10.523 6.35-21.59 8.709-32.658 0.544-2.721 1.27-5.262 1.814-7.983 0.544-2.359 1.996-5.443 1.27-7.983-0.907-3.447-2.177-6.713-3.991-9.797-3.991-7.076-10.704-11.612-18.506-14.152-1.814-0.544-3.81-0.363-5.624-0.363-2.721 0-5.624 0-8.346 0-1.451 0-2.54-0.181-3.81 0.544-0.907 0.544-1.814 0.907-2.721 1.451-1.814 1.089-3.629 2.54-5.080 3.991-8.346 7.802-11.612 19.232-16.329 29.392-0.544 1.27-1.089 2.359-1.633 3.447-1.996-0.544-4.173-1.089-6.169-1.633-4.173-1.089-8.346-2.359-12.519-3.447-8.527-2.359-16.873-4.717-25.219-6.894-1.996 6.532 14.696 3.991 0 0zM140.428 270.242c6.894 0 13.97 0.726 19.957 4.354 2.903 1.814 5.262 3.991 7.439 6.532 0.726 0.726 1.27 1.451 1.996 2.359 0.363 0.363 0.726 0.907 1.089 1.27 0.544 0.544 0.363 1.089 0.363 1.814 0 2.903 0 5.624 0 8.527-0.544-0.544-1.089-0.907-1.633-1.451-0.544 1.27-1.089 2.54-1.633 3.629-0.181 0.544-0.544 1.089-0.726 1.633-0.363 0.907-0.181 1.451-1.27 1.089-3.084-0.907-6.169-1.814-9.253-2.721-5.624-1.633-11.249-3.447-16.873-5.080-2.54-0.726-5.262-1.633-7.802-2.359-0.544-0.181-1.27-0.363-1.814-0.544-0.907-0.181-1.814-0.181-1.814-1.27 0-1.451 0-2.903 0-4.354 0-0.544 0-1.089 0-1.633 0.544-0.544 0.907-0.907 1.451-1.451 1.089-1.089 2.177-2.177 3.447-3.447 2.54-2.177 4.899-4.536 7.076-6.894 15.059 0-3.991 3.991 0 0zM734.979 120.924c3.81-2.721 7.439-5.443 11.249-8.164-10.523-7.076-21.046-14.152-31.388-21.227 6.169-9.072 12.337-18.143 18.687-27.215 9.253 7.439 18.506 14.877 27.759 22.135 1.814-3.084 3.629-6.35 5.443-9.434 0.544-0.726 0.907-1.633 1.451-2.359-0.726-0.544-1.633-1.089-2.359-1.633-1.814-1.27-3.447-2.359-5.262-3.629-6.713-4.717-13.426-9.434-20.139-14.152 7.62-10.886 15.24-21.772 22.86-32.658 3.629 3.266 7.439 6.713 11.067 9.979 1.814 1.633 3.81 3.447 5.624 5.080 1.089 0.907 2.177 1.996 3.084 2.903 0.726 0.726 1.996 2.359 3.084 2.54 3.084 0.363 5.806-0.363 7.983-2.721 1.27-1.451 2.177-3.084 2.903-4.899-1.451-1.814-2.903-3.447-4.536-5.080-12.7-12.337-29.573-19.413-42.092-31.932-20.865 29.755-41.911 59.328-62.775 89.083 15.966 11.249 31.569 22.316 47.354 33.383 3.81-2.721-15.059-10.704 0 0zM428.904 49.984c19.413-3.447 38.826-7.076 58.24-10.523-0.907-1.996-2.359-3.81-2.903-5.987s-0.181-4.354-0.181-6.532c-11.793 2.359-23.405 4.536-35.198 6.894-1.089-6.532-1.996-13.063-3.084-19.595-0.544-3.266-1.089-6.35-1.451-9.616-0.181-0.726-0.181-1.27-0.363-1.996-0.181-1.451-0.181-1.27 1.27-1.451 1.814-0.363 3.629-0.544 5.624-0.907 6.713-1.089 13.607-2.177 20.32-3.266 1.633-0.181 3.266-0.544 4.899-0.726 1.089-0.181 0.726-0.544 0.726-1.451 0-0.726 0-1.27 0-1.996 0-3.084 0-6.169 0-9.253-5.987 1.27-12.156 2.54-18.143 3.81-3.084 0.544-5.987 1.27-9.072 1.814-1.633 0.363-3.266 0.726-4.899 1.089-0.726 0.181-1.451 0.363-1.996 0.363-0.181-0.907-0.363-1.814-0.544-2.721-2.54-11.974-5.080-23.768-7.439-35.742 9.253-1.27 18.506-2.721 27.759-3.991 2.359-0.363 4.717-0.726 7.076-1.089 1.451-0.181 2.177-2.54 2.177-3.991 0.181-3.81-3.266-6.713-5.806-9.072-18.687 3.266-37.556 6.532-56.244 9.797 6.894 35.198 9.434 71.484 19.232 106.137 20.32-3.629-9.797-34.653 0 0zM530.143-26.217c2.903-6.169 5.806-12.519 10.16-17.962s11.249-10.523 18.325-11.612c6.532-1.089 13.426-0.726 19.776 1.633 7.802 2.903 14.152 8.527 19.050 15.059 0.726-4.354 1.451-8.89 1.996-13.245 0.181-1.089 0.726-2.177-0.181-2.54-1.27-0.726-2.359-1.27-3.629-1.996-2.54-1.451-5.262-2.903-7.802-4.354s-4.899-2.721-7.439-4.173c-2.903 0-5.806 0-8.709 0-5.806 0-11.612 0-17.417 0-15.422 0-30.662 4.899-40.278 17.78-2.54 3.266-4.536 6.894-5.987 10.704-0.907 2.177-1.633 3.629-3.266 5.443-1.633 1.633-1.089 4.899-1.089 6.894 0.181 4.717 0.726 9.434-0.726 13.97-0.363 1.089-0.907 2.177-1.451 3.266-0.363 0.544-0.726 1.089-1.089 1.633 0.181 0.544 0.363 0.907 0.544 1.451 0.907 1.996 1.633 4.173 2.359 6.35 2.903 8.164 5.080 16.692 10.16 23.586 5.987 8.164 15.422 12.7 24.493 15.966 2.903 1.089 5.806 1.996 8.709 2.903s5.624 2.177 8.527 2.721c6.169 1.27 12.7 0.363 18.869-0.363 3.084-0.363 5.987-0.907 8.89-2.177s5.443-2.903 8.164-4.354c0.544-0.363 1.089-0.544 1.633-0.907-0.363-0.907-0.544-1.633-0.907-2.54-0.544-1.633-1.089-3.084-1.633-4.717-1.089-3.266-2.177-6.532-3.266-9.797-2.903 3.629-5.806 7.257-8.709 10.886-0.907 1.089-3.447 0-4.899 0.363-2.177 0.907-4.536 1.633-6.713 2.359-4.536 1.27-9.253 1.451-13.607-0.544-4.173-1.814-7.983-4.536-11.249-7.62-3.084-2.903-5.806-6.169-8.164-9.797s-4.354-7.62-4.173-12.156c0.726-10.886 0.726-21.409 0.726-32.113 5.987-12.7 0 9.434 0 0zM599.994 49.259c22.316 8.709 44.451 17.417 66.767 26.126 1.27 0.544 2.721 1.089 3.991 1.633 0.726 0.363 3.266 1.633 3.629 0.907 1.089-1.996 1.996-4.173 3.084-6.169 0.363-0.907 1.814-2.54 1.27-3.447s-1.27-1.633-1.996-2.359-3.266-2.54-5.080-3.266c-3.81-1.451-7.802-1.996-11.612-3.084-0.907-0.181-1.996-0.544-2.903-0.907-0.544-0.181-0.907-0.363-1.451-0.544-0.726-0.363-0.544-0.726-0.363-1.451 0.181-2.54 0.544-5.080 1.089-7.62 1.814-8.346 5.624-15.966 9.253-23.768 3.81-8.346 6.35-17.236 9.797-25.763 3.629-9.072 7.62-17.962 11.43-26.852 0.544-1.089 0.907-2.177 1.451-3.266 0.363-0.907 0-0.726-0.726-1.089-0.544-0.181-1.089-0.544-1.633-0.726-1.996-0.907-3.991-1.814-5.987-2.721-4.354-1.996-8.89-3.991-13.245-5.987-11.974 30.481-23.768 60.78-35.742 91.26-8.709-4.899-17.236-9.979-25.945-14.877-1.996 4.717-3.629 9.253-5.080 13.97 24.13 9.434 1.633-4.899 0 0zM359.597 62.322c-8.89 3.447-17.962 7.076-26.852 10.523 1.089 2.177 2.177 4.536 3.084 6.713 0.363 0.726 0.907 2.54 1.633 2.721 1.089 0.181 2.177 0.544 3.266 0.363 2.54-0.544 5.262-2.177 7.802-3.266 2.903-1.27 5.806-2.359 8.709-3.629 11.067-4.717 22.316-9.434 33.383-14.152 5.624-2.359 11.067-4.717 16.692-7.076 1.27-0.544 2.721-1.089 3.991-1.633-0.544-1.27-0.907-2.359-1.451-3.629-0.363-1.089-0.907-2.177-1.27-3.266-0.181-0.544-0.544-1.089-0.726-1.633-0.363-1.089-0.363-1.27-1.633-1.27-4.354-0.363-8.346 1.451-12.156 3.447-1.814 1.089-3.81 2.177-5.624 3.084-0.907 0.544-1.996 1.089-3.084 1.451-0.544 0.181-1.089 0.363-1.633 0.544-0.907 0.363-1.451 0.907-1.996 0-15.603-28.122-24.675-59.328-39.734-87.813-4.173 2.177-8.346 4.536-12.519 6.713-2.177 1.089-4.354 2.359-6.532 3.447-0.363 0.181-0.726 0.363-1.27 0.726 0.181 0.544 0.544 1.27 0.726 1.814 0.544 1.27 1.089 2.54 1.633 3.81 3.81 8.89 7.62 17.78 11.43 26.67 8.346 18.687 16.329 37.012 24.13 55.337-8.89 3.447-13.063-30.662 0 0zM714.659 762.285c-11.249 1.996-22.679 3.81-33.928 5.806-2.54 0.363-5.262 0.907-7.802 1.27-1.27 0.181-2.54 0.363-3.81 0.726-0.726 0.181-1.27 0.181-1.996 0.363-1.27 0.181-1.27 0.181-1.451 1.451-0.363 3.266-0.907 6.894-0.363 10.16 0.363 2.359 1.814 4.354 3.084 6.35 0.363 0.726 0.181 0.726 1.089 0.544 0.726-0.181 1.451-0.181 2.177-0.363 1.451-0.181 2.903-0.544 4.173-0.726 3.084-0.544 6.169-1.089 9.253-1.633 11.793-2.177 23.586-4.354 35.379-6.35 5.987-1.089 11.793-2.177 17.78-3.266 0.726-0.181 1.451-0.181 2.177-0.363 0-0.544 0-1.089 0-1.633 0-1.089 0-2.177 0-3.266 0-2.54 0-5.080 0-7.62 0-0.726 0-1.27 0-1.996-0.363-0.363-0.907-0.726-1.27-1.089-0.907-0.726-1.633-1.451-2.54-2.177-1.814-1.633-3.629-3.084-5.443-4.717-3.447-3.084-6.713-6.169-9.979-9.434-12.882-13.063-24.13-28.303-30.843-45.539-1.996-5.262-3.629-10.704-4.899-16.147-3.629 0.726-7.257 1.996-10.886 2.359-3.447 0.363-7.076 0-10.523 0 7.439 33.021 27.759 55.881 50.619 77.29-17.236 2.903-22.86-21.409 0 0zM362.319 286.208c-1.089 0.363-2.359 0.726-3.447 1.27-1.089-1.089-2.177-1.996-3.266-3.084-2.359-2.177-4.536-4.173-6.894-6.35 5.987-1.814 10.704-3.084 19.050-5.443-1.451 1.633-3.629 3.266-4.899 5.262-1.451 2.177-0.544 5.987-0.544 8.346-1.089 0.544 0-2.54 0 0zM154.58 188.235c0.726 0.907 1.451 1.814 2.359 2.721 0.363-0.363 0.726-0.726 1.089-1.089-0.544-0.544-1.089-0.907-1.633-1.451-0.907-0.726-0.907-1.089-1.814-0.181 0.907 0.907 0.363-0.181 0 0zM520.346 251.373c3.447 7.802 11.974 8.346 18.687 11.793 1.089 0.544 1.451 0.181 2.359-0.363 0.907-0.363 1.633-0.726 2.54-0.907 1.814-0.544 3.81-1.089 5.624-1.633 3.629-0.907 7.257-1.814 10.704-3.447 3.629-1.633 6.532-4.354 8.709-7.62 1.27-1.996 0.726-4.536 0.726-6.894 0-1.27 0.363-3.084-0.544-3.991-1.089-1.089-2.177-2.177-3.266-3.266-0.907-0.907-1.996-1.996-2.903-2.903-0.544-0.544-0.907-0.907-1.451-1.451-0.726 0-1.27 0-1.996 0-2.903 0-5.987-0.181-8.89-0.181-5.443 0-10.523 0.726-15.603 2.177-2.359 0.726-4.717 1.27-6.894 1.996zM362.319 286.208c0-2.54-0.907-6.35 0.544-8.527 1.27-1.996 3.266-3.447 4.899-5.262-8.164 2.359-13.063 3.81-19.050 5.443 2.177 1.996 4.354 3.991 6.35 5.987 1.089 1.089 2.177 1.996 3.266 3.084 0.907 0.907 2.903-0.181 3.991-0.726 0-2.54-1.089 0.544 0 0z" />
<glyph unicode="&#xe900;" glyph-name="filters" d="M0 787.2v-96h230.4c25.6-64 83.2-108.8 153.6-108.8s128 44.8 147.2 108.8h492.8v96h-492.8c-25.6 64-83.2 108.8-147.2 108.8s-128-44.8-147.2-108.8h-236.8zM320 742.4c0 32 25.6 57.6 64 57.6s57.6-25.6 57.6-57.6-25.6-64-57.6-64-64 25.6-64 64zM0 76.8v-96h160c19.2-64 76.8-108.8 147.2-108.8s128 44.8 147.2 108.8h569.6v96h-563.2c-19.2 64-76.8 108.8-147.2 108.8s-128-44.8-147.2-108.8h-166.4zM249.6 25.6c0 32 25.6 57.6 57.6 57.6s57.6-25.6 57.6-57.6-25.6-57.6-57.6-57.6-57.6 25.6-57.6 57.6zM0 435.2v-96h512c19.2-64 76.8-108.8 147.2-108.8s128 44.8 147.2 108.8h217.6v96h-217.6c-19.2 64-76.8 108.8-147.2 108.8s-128-51.2-147.2-108.8h-512zM601.6 384c0 32 25.6 57.6 57.6 57.6s57.6-25.6 57.6-57.6c0-32-25.6-57.6-57.6-57.6s-57.6 25.6-57.6 57.6z" />
<glyph unicode="&#xe901;" glyph-name="piggybank" d="M134.4 569.6c-12.8 6.4-19.2 6.4-32 12.8-19.2 0-38.4-6.4-44.8-25.6s-6.4-38.4 12.8-51.2c6.4-6.4 6.4-6.4 12.8-12.8 12.8-6.4 19.2-6.4 32 0 6.4 12.8 19.2 19.2 25.6 32 38.4 51.2 96 83.2 160 102.4 76.8 25.6 160 32 243.2 19.2 19.2 0 38.4-6.4 57.6-6.4 6.4 0 12.8 0 12.8 6.4 32 70.4 89.6 108.8 160 128 0 0 0 0 6.4 0-6.4-12.8-6.4-19.2-12.8-25.6-19.2-44.8-25.6-96-25.6-140.8 0-51.2 12.8-102.4 51.2-140.8 0 0 6.4-6.4 6.4-6.4s0 0 6.4-6.4c-12.8 38.4-25.6 76.8-19.2 115.2 0 0 0 0 6.4 0 12.8-12.8 25.6-19.2 38.4-32 32-32 57.6-70.4 70.4-115.2 12.8-32 19.2-38.4 38.4-38.4 12.8 0 25.6 0 32 0 25.6 0 38.4-19.2 38.4-38.4 0-38.4 0-76.8 0-115.2 0-25.6-12.8-38.4-38.4-38.4-12.8 0-25.6 0-32 0-19.2 0-32-6.4-38.4-25.6-12.8-25.6-25.6-44.8-44.8-70.4s-38.4-38.4-64-57.6c-6.4 0-12.8-6.4-12.8-6.4-12.8-6.4-12.8-19.2-12.8-32 6.4-12.8 6.4-19.2 12.8-32 6.4-25.6 0-44.8-25.6-57.6-25.6-6.4-51.2-19.2-70.4-25.6-25.6-6.4-44.8 0-57.6 25.6-6.4 12.8-12.8 32-19.2 44.8-6.4 19.2-12.8 19.2-32 19.2s-44.8-6.4-64-6.4-89.6 0-140.8 6.4c-6.4 0-6.4 0-12.8 0-12.8 0-19.2 0-19.2-12.8-6.4-19.2-12.8-32-19.2-51.2-12.8-32-32-38.4-64-25.6-19.2 6.4-44.8 19.2-64 25.6-25.6 12.8-38.4 32-25.6 64 6.4 12.8 12.8 32 19.2 51.2 6.4 12.8 0 25.6-12.8 38.4-38.4 32-70.4 64-89.6 102.4-32 44.8-38.4 96-32 153.6 0 25.6 6.4 51.2 12.8 76.8 0 12.8 0 25.6-6.4 32s-19.2 19.2-25.6 25.6c-32 38.4-32 102.4 0 134.4 12.8 19.2 32 32 57.6 25.6 19.2-6.4 38.4-19.2 44.8-44.8zM864 326.4c0 32-32 57.6-64 57.6s-57.6-25.6-57.6-57.6c0-32 25.6-57.6 57.6-57.6s64 25.6 64 57.6zM448 691.2c-51.2 0-102.4-12.8-153.6-25.6-6.4 0-12.8 0-12.8 6.4-38.4 32-44.8 76.8-32 128 12.8 44.8 51.2 76.8 96 89.6 76.8 6.4 147.2-38.4 153.6-115.2 6.4-25.6 0-51.2-12.8-76.8 0 0-6.4-6.4-6.4-6.4-12.8 0-19.2 0-32 0z" />
<glyph unicode="&#xe902;" glyph-name="home" d="M1024 288l-192 192v288h-128v-160l-192 192-512-512v-32h128v-320h320v192h128v-192h320v320h128z" />
<glyph unicode="&#xe903;" glyph-name="office" d="M0-128h512v1024h-512v-1024zM320 768h128v-128h-128v128zM320 512h128v-128h-128v128zM320 256h128v-128h-128v128zM64 768h128v-128h-128v128zM64 512h128v-128h-128v128zM64 256h128v-128h-128v128zM576 576h448v-64h-448zM576-128h128v256h192v-256h128v576h-448z" />
<glyph unicode="&#xe904;" glyph-name="36years" d="M76.8 243.2c25.6-12.8 89.6-38.4 153.6-38.4 76.8 0 121.6 38.4 121.6 83.2 0 64-64 89.6-128 89.6h-64v108.8h57.6c51.2 0 115.2 19.2 115.2 70.4 0 38.4-32 64-96 64-51.2 0-108.8-19.2-134.4-38.4l-38.4 102.4c38.4 25.6 115.2 44.8 198.4 44.8 140.8 0 217.6-70.4 217.6-153.6 0-64-38.4-115.2-121.6-147.2v0c76.8-12.8 140.8-70.4 140.8-153.6 0-108.8-102.4-192-262.4-192-83.2 0-153.6 19.2-192 44.8l32 115.2zM947.2 620.8c-19.2 0-32 0-57.6 0-134.4-12.8-192-76.8-211.2-147.2v0c32 32 76.8 51.2 140.8 51.2 108.8 0 198.4-70.4 198.4-204.8 0-121.6-96-224-236.8-224-172.8 0-256 121.6-256 268.8-6.4 115.2 38.4 211.2 108.8 275.2 64 57.6 147.2 89.6 249.6 89.6 25.6 0 44.8 0 64 0v-108.8zM864 307.2c0 57.6-32 108.8-96 108.8-38.4 0-76.8-25.6-89.6-57.6-6.4-6.4-6.4-19.2-6.4-38.4 0-64 38.4-128 102.4-128 51.2 6.4 89.6 57.6 89.6 115.2zM230.4 812.8h-51.2v-38.4h57.6v-19.2h-83.2v128h76.8v-19.2h-51.2v-32h51.2v-19.2zM243.2 780.8c6.4-6.4 19.2-6.4 32-6.4 19.2 0 25.6 6.4 25.6 19.2s-6.4 12.8-25.6 19.2-38.4 19.2-38.4 38.4c0 19.2 19.2 38.4 51.2 38.4 12.8 0 25.6 0 32-6.4l-6.4-19.2c-6.4 0-12.8 6.4-25.6 6.4s-25.6-6.4-25.6-12.8c0-12.8 6.4-12.8 25.6-19.2 25.6-6.4 38.4-19.2 38.4-38.4s-19.2-38.4-51.2-38.4c-19.2-6.4-32 0-38.4 0l6.4 19.2zM358.4 870.4h-38.4v19.2h102.4v-19.2h-38.4v-108.8h-25.6v108.8zM403.2 768c0 6.4 6.4 12.8 12.8 12.8s12.8-6.4 12.8-12.8c0-6.4-6.4-12.8-12.8-12.8s-12.8 6.4-12.8 12.8zM588.8 825.6c0-44.8-25.6-70.4-64-70.4s-64 25.6-64 64c0 38.4 25.6 70.4 64 70.4s64-25.6 64-64zM486.4 819.2c0-25.6 12.8-44.8 38.4-44.8s38.4 19.2 38.4 51.2c0 25.6-12.8 51.2-38.4 51.2-25.6-6.4-38.4-25.6-38.4-57.6zM627.2 755.2l-44.8 128h25.6l19.2-57.6c6.4-12.8 6.4-32 12.8-44.8v0c6.4 12.8 6.4 32 12.8 44.8l19.2 57.6h32l-44.8-128h-32zM774.4 812.8h-51.2v-38.4h57.6v-19.2h-76.8v128h76.8v-19.2h-57.6v-32h51.2v-19.2zM787.2 883.2c6.4 0 25.6 0 38.4 0 19.2 0 32 0 44.8-12.8 6.4-6.4 12.8-12.8 12.8-25.6 0-19.2-12.8-25.6-25.6-32v0c12.8-6.4 12.8-12.8 19.2-25.6 6.4-19.2 6.4-32 12.8-38.4h-25.6c0 6.4-6.4 12.8-6.4 32-6.4 19.2-12.8 25.6-25.6 25.6h-12.8v-51.2h-25.6v128zM812.8 825.6h19.2c19.2 0 25.6 6.4 25.6 19.2s-12.8 19.2-25.6 19.2c-6.4 0-12.8 0-12.8 0v-38.4zM230.4-108.8v76.8l-57.6 102.4h38.4l25.6-44.8c6.4-12.8 12.8-25.6 19.2-38.4v0c0 12.8 6.4 19.2 12.8 32l25.6 44.8h38.4l-64-102.4v-76.8h-38.4zM428.8-32h-70.4v-51.2h76.8v-25.6h-108.8v179.2h108.8v-25.6h-76.8v-44.8h70.4v-32zM486.4-57.6l-19.2-51.2h-32l57.6 179.2h44.8l57.6-179.2h-32l-19.2 51.2h-57.6zM537.6-38.4l-12.8 44.8c-6.4 12.8-6.4 25.6-6.4 32v0c0-12.8-6.4-25.6-6.4-32l-12.8-44.8h38.4zM601.6 64c12.8 0 32 6.4 51.2 6.4 25.6 0 44.8-6.4 57.6-12.8s19.2-19.2 19.2-38.4c0-25.6-19.2-38.4-32-44.8v0c12.8-6.4 19.2-19.2 25.6-32 6.4-19.2 12.8-44.8 12.8-51.2h-32c0 6.4-6.4 19.2-12.8 44.8s-12.8 32-32 32h-19.2v-70.4h-38.4v166.4zM640-12.8h19.2c25.6 0 38.4 12.8 38.4 32s-12.8 25.6-38.4 25.6c-12.8 0-19.2 0-19.2 0v-57.6zM742.4-76.8c12.8-6.4 25.6-12.8 44.8-12.8s32 12.8 32 25.6c0 12.8-6.4 19.2-32 32-32 12.8-51.2 25.6-51.2 51.2 0 32 25.6 51.2 64 51.2 19.2 0 32-6.4 44.8-6.4l-6.4-25.6c-6.4 6.4-19.2 6.4-38.4 6.4s-32-12.8-32-19.2c0-12.8 12.8-19.2 38.4-32 32-12.8 51.2-25.6 51.2-51.2s-25.6-51.2-70.4-51.2c-19.2 0-38.4 6.4-51.2 12.8l6.4 19.2z" />
<glyph unicode="&#xe905;" glyph-name="book" d="M768 320h-128c-34 0-64-32-64-64h256c0 34-32 64-64 64zM713 736c-167 0-209-32-233-56-24 24-66 56-233 56s-247-46-247-78v-586c29 16 119 48 214 56 115 9 234-9 234-32 0-16 8-31 31-32 0 0 0 0 1 0 0 0 0 0 1 0 23 1 31 16 31 32 0 23 119 41 234 32 94-7 185-40 214-56v586c0 32-80 78-247 78zM448 164c-30 16-103 28-192 28s-170-12-192-27c0 0 0 411 0 443s64 59 192 59 192-27 192-59 0-444 0-444zM896 165c-22 15-103 27-192 27s-162-12-192-28c0 0 0 412 0 444s64 59 192 59 192-27 192-59 0-443 0-443zM768 448h-128c-34 0-64-32-64-64h256c0 34-32 64-64 64zM768 576h-128c-34 0-64-32-64-64h256c0 34-32 64-64 64zM320 448h-128c-32 0-64-30-64-64h256c0 32-30 64-64 64zM320 320h-128c-32 0-64-30-64-64h256c0 32-30 64-64 64zM320 576h-128c-32 0-64-30-64-64h256c0 32-30 64-64 64z" />
<glyph unicode="&#xe906;" glyph-name="checkmark" d="M954.857 627.428q0-22.857-16-38.857l-491.429-491.429q-16-16-38.857-16t-38.857 16l-284.571 284.571q-16 16-16 38.857t16 38.857l77.714 77.714q16 16 38.857 16t38.857-16l168-168.571 374.857 375.429q16 16 38.857 16t38.857-16l77.714-77.714q16-16 16-38.857z" />
<glyph unicode="&#xe907;" glyph-name="tripadvisor" horiz-adv-x="1317" d="M372 381.143q0-22.286-15.714-38t-37.429-15.714q-22.286 0-38 15.714t-15.714 38q0 21.714 15.714 37.429t38 15.714q21.714 0 37.429-15.714t15.714-37.429zM1031.431 381.714q0-22.286-15.714-38t-38-15.714-38 15.714-15.714 38 15.714 37.714 38 15.429 38-15.429 15.714-37.714zM437.143 381.143q0 45.143-32.286 77.714t-78 32.571-78-32.286-32.286-78 32.286-78 78-32.286 78 32.286 32.286 78zM1096.001 381.714q0 45.714-32.286 78t-78 32.286q-45.143 0-77.714-32.286t-32.571-78 32.286-78 78-32.286 78 32.286 32.286 78zM485.715 381.143q0-66.286-46.571-112.857t-112.286-46.571q-66.286 0-112.857 46.857t-46.571 112.571 46.857 112.286 112.571 46.571 112.286-46.571 46.571-112.286zM1145.141 381.714q0-65.714-46.571-112.286t-112.857-46.571q-65.714 0-112.286 46.571t-46.571 112.286 46.571 112.286 112.286 46.571q66.286 0 112.857-46.571t46.571-112.286zM594.287 380q0 109.143-77.429 186.571t-186.571 77.429q-71.429 0-132-35.429t-96-96.286-35.429-132.286 35.429-132.286 96-96.286 132-35.429q109.143 0 186.571 77.429t77.429 186.571zM976.001 707.428q-145.143 63.429-317.714 63.429-182.286 0-327.429-62.857 66.857 0 127.429-26t104.286-70 69.714-104.571 26-127.429q0 65.714 24.857 125.429t67.429 103.143 101.429 70.286 124 28.571zM1249.711 380q0 109.143-77.143 186.571t-186.286 77.429-186.571-77.429-77.429-186.571 77.429-186.571 186.571-77.429 186.286 77.429 77.143 186.571zM1097.711 703.428h218.857q-25.143-29.143-42.857-65.429t-22.857-65.429q62.857-86.286 62.857-192.571 0-89.143-44-164.571t-119.429-119.143-164-43.714q-76 0-142.286 32t-112 88.571q-26.857-32-73.714-102.286-6.286 12.571-30.571 47.143t-42.571 55.714q-45.714-56.571-112.286-88.857t-142.571-32.286q-88.571 0-164 43.714t-119.429 119.143-44 164.571q0 106.286 62.857 192.571-5.143 29.143-22.857 65.429t-42.857 65.429h208.571q85.143 57.143 202.857 89.429t246.857 32.286q128 0 240.571-32t198.857-89.714z" />
<glyph unicode="&#xe908;" glyph-name="minus" horiz-adv-x="805" d="M804.572 530.286v-109.714q0-22.857-16-38.857t-38.857-16h-694.857q-22.857 0-38.857 16t-16 38.857v109.714q0 22.857 16 38.857t38.857 16h694.857q22.857 0 38.857-16t16-38.857z" />
<glyph unicode="&#xe909;" glyph-name="plus" horiz-adv-x="805" d="M804.571 530.286v-109.714q0-22.857-16-38.857t-38.857-16h-237.714v-237.714q0-22.857-16-38.857t-38.857-16h-109.714q-22.857 0-38.857 16t-16 38.857v237.714h-237.714q-22.857 0-38.857 16t-16 38.857v109.714q0 22.857 16 38.857t38.857 16h237.714v237.714q0 22.857 16 38.857t38.857 16h109.714q22.857 0 38.857-16t16-38.857v-237.714h237.714q22.857 0 38.857-16t16-38.857z" />
<glyph unicode="&#xe90a;" glyph-name="credit-card" horiz-adv-x="1097" d="M1005.71 877.714q37.714 0 64.571-26.857t26.857-64.571v-694.857q0-37.714-26.857-64.571t-64.571-26.857h-914.286q-37.714 0-64.571 26.857t-26.857 64.571v694.857q0 37.714 26.857 64.571t64.571 26.857h914.286zM91.429 804.571q-7.429 0-12.857-5.429t-5.429-12.857v-128h950.857v128q0 7.429-5.429 12.857t-12.857 5.429h-914.286zM1005.71 73.143q7.429 0 12.857 5.429t5.429 12.857v347.429h-950.857v-347.429q0-7.429 5.429-12.857t12.857-5.429h914.286zM146.286 146.286v73.143h146.286v-73.143h-146.286zM365.714 146.286v73.143h219.429v-73.143h-219.429z" />
<glyph unicode="&#xe90b;" glyph-name="envelope" d="M1023.999 545.143v-453.714q0-37.714-26.857-64.571t-64.571-26.857h-841.142q-37.714 0-64.571 26.857t-26.857 64.571v453.714q25.143-28 57.714-49.714 206.857-140.571 284-197.143 32.571-24 52.857-37.429t54-27.429 62.857-14h1.143q29.143 0 62.857 14t54 27.429 52.857 37.429q97.143 70.286 284.571 197.143 32.571 22.286 57.143 49.714zM1023.999 713.143q0-45.143-28-86.286t-69.714-70.286q-214.857-149.143-267.429-185.714-5.714-4-24.286-17.429t-30.857-21.714-29.714-18.571-32.857-15.429-28.571-5.143h-1.143q-13.143 0-28.571 5.143t-32.857 15.429-29.714 18.571-30.857 21.714-24.286 17.429q-52 36.571-149.714 104.286t-117.143 81.429q-35.429 24-66.857 66t-31.429 78q0 44.571 23.714 74.286t67.714 29.714h841.142q37.143 0 64.286-26.857t27.143-64.571z" />
<glyph unicode="&#xe90c;" glyph-name="car" horiz-adv-x="1170" d="M274.286 329.143q0 37.714-26.857 64.571t-64.571 26.857-64.571-26.857-26.857-64.571 26.857-64.571 64.571-26.857 64.571 26.857 26.857 64.571zM294.857 512h580.572l-50.857 204q-1.143 4.571-8 10t-12 5.429h-438.857q-5.143 0-12-5.429t-8-10zM1078.861 329.143q0 37.714-26.857 64.571t-64.571 26.857-64.571-26.857-26.857-64.571 26.857-64.571 64.571-26.857 64.571 26.857 26.857 64.571zM1170.291 384v-219.429q0-8-5.143-13.143t-13.143-5.143h-54.857v-73.143q0-45.714-32-77.714t-77.714-32-77.714 32-32 77.714v73.143h-585.144v-73.143q0-45.714-32-77.714t-77.714-32-77.714 32-32 77.714v73.143h-54.857q-8 0-13.143 5.143t-5.143 13.143v219.429q0 53.143 37.429 90.571t90.571 37.429h16l60 239.429q13.143 53.714 59.429 90t102.286 36.286h438.857q56 0 102.286-36.286t59.429-90l60-239.429h16q53.143 0 90.571-37.429t37.429-90.571z" />
<glyph unicode="&#xe90d;" glyph-name="bus" horiz-adv-x="878" d="M219.429 256q0 30.286-21.429 51.714t-51.714 21.429-51.714-21.429-21.429-51.714 21.429-51.714 51.714-21.429 51.714 21.429 21.429 51.714zM804.571 256q0 30.286-21.429 51.714t-51.714 21.429-51.714-21.429-21.429-51.714 21.429-51.714 51.714-21.429 51.714 21.429 21.429 51.714zM778.286 482.286l-41.143 219.429q-2.857 13.143-12.857 21.429t-23.143 8.286h-524.571q-13.143 0-23.143-8.286t-12.857-21.429l-41.143-219.429q-2.857-17.143 8-30.286t28-13.143h606.857q17.143 0 28 13.143t8 30.286zM649.143 832q0 11.429-8 19.429t-19.429 8h-365.714q-11.429 0-19.429-8t-8-19.429 8-19.429 19.429-8h365.714q11.429 0 19.429 8t8 19.429zM877.714 417.714v-344.571h-73.143v-73.143q0-30.286-21.429-51.714t-51.714-21.429-51.714 21.429-21.429 51.714v73.143h-438.857v-73.143q0-30.286-21.429-51.714t-51.714-21.429-51.714 21.429-21.429 51.714v73.143h-73.143v344.571q0 64 14.286 127.429l58.857 259.429q5.143 44.571 55.714 78.286t131.429 50.857 178.571 17.143 178.571-17.143 131.429-50.857 55.714-78.286l60-259.429q13.143-58.286 13.143-127.429z" />
<glyph unicode="&#xe90e;" glyph-name="lock" d="M480 226.731v0c-18.643 6.589-32 24.369-32 45.269 0 26.51 21.49 48 48 48s48-21.49 48-48c0-20.9-13.357-38.679-32-45.269v-83.019c0-8.42-7.163-15.712-16-15.712-8.578 0-16 7.035-16 15.712v83.019zM256 480v0 0c-53.045-0.15-96-42.866-96-96.303v-319.393c0-53.187 43.059-96.303 96.281-96.303h479.438c53.175 0 96.281 42.772 96.281 96.303v319.393c0 53.093-42.907 96.151-96 96.303v112.025c0 132.535-107.721 239.976-240 239.976-132.548 0-240-107.415-240-239.976v-112.025zM352 480v111.973c0 79.731 64.471 144.027 144 144.027 79.367 0 144-64.483 144-144.027v-111.973h-288z" />
<glyph unicode="&#xe90f;" glyph-name="sun" d="M256.992 400c0-132.576 107.456-240 240-240 132.576 0 240 107.424 240 240s-107.424 240-240 240c-132.544 0-240-107.424-240-240zM496.992 808l-67.488-135.008h135.008l-67.52 135.008zM785.376 689.376l-143.2-47.712 95.424-95.456 47.776 143.168zM351.808 641.664l-143.168 47.712 47.712-143.2 95.456 95.488zM223.008 468.512l-135.008-67.52 135.008-67.488v135.008zM768.992 331.488l135.008 67.488-135.008 67.488v-134.976zM496.992-8l67.488 135.008h-135.008l67.52-135.008zM642.176 158.336l143.2-47.712-47.744 143.2-95.456-95.488zM208.64 110.624l143.2 47.712-95.456 95.456-47.744-143.168z" />
<glyph unicode="&#xe910;" glyph-name="heart-minus" d="M768 512.736c-123.712 0-224-101.056-224-225.76 0-71.040 32.64-134.304 83.488-175.712-65.792-48.8-115.488-79.616-115.488-79.616s-448 276.864-448 499.904c0 134.4 82.656 268.768 240 268.768 144 0 208-137.472 208-137.472s56 137.472 208 137.472 237.312-131.68 237.312-268.768c0-30.656-8.704-62.176-22.912-93.824-40.992 45.952-100.288 75.008-166.4 75.008zM768 480.512c106.016 0 192-86.624 192-193.504s-85.984-193.536-192-193.536c-106.048 0-192 86.656-192 193.536s85.952 193.504 192 193.504zM672 254.752h192v64.512h-192v-64.512z" />
<glyph unicode="&#xe911;" glyph-name="heart-plus" d="M768 512.736c-123.712 0-224-101.056-224-225.76 0-71.040 32.64-134.304 83.488-175.712-65.792-48.8-115.488-79.616-115.488-79.616s-448 276.864-448 499.904c0 134.4 82.656 268.768 240 268.768 144 0 208-137.472 208-137.472s56 137.472 208 137.472 237.312-131.68 237.312-268.768c0-30.656-8.704-62.176-22.912-93.824-40.992 45.952-100.288 75.008-166.4 75.008zM768 480.512c106.016 0 192-86.624 192-193.504s-85.984-193.536-192-193.536c-106.048 0-192 86.656-192 193.536s85.952 193.504 192 193.504zM672 254.752h64v-64.512h64v64.512h64v64.512h-64v64.512h-64v-64.512h-64v-64.512z" />
<glyph unicode="&#xe912;" glyph-name="cab" horiz-adv-x="1170" d="M1042.289 438.857q53.143 0 90.571-37.429t37.429-90.571v-219.429q0-8-5.143-13.143t-13.143-5.143h-54.857v-36.571q0-45.714-32-77.714t-77.714-32-77.714 32-32 77.714v36.571h-585.143v-36.571q0-45.714-32-77.714t-77.714-32-77.714 32-32 77.714v36.571h-54.857q-8 0-13.143 5.143t-5.143 13.143v219.429q0 53.143 37.429 90.571t90.571 37.429h16l60 239.429q13.143 53.714 59.429 90t102.286 36.286h73.143v128q0 8 5.143 13.143t13.143 5.143h256q8 0 13.143-5.143t5.143-13.143v-128h73.143q56 0 102.286-36.286t59.429-90l60-239.429h16zM182.857 164.571q37.714 0 64.571 26.857t26.857 64.571-26.857 64.571-64.571 26.857-64.571-26.857-26.857-64.571 26.857-64.571 64.571-26.857zM294.857 438.857h580.571l-50.857 204q-1.143 4.571-8 10t-12 5.429h-438.857q-5.143 0-12-5.429t-8-10zM987.428 164.571q37.714 0 64.571 26.857t26.857 64.571-26.857 64.571-64.571 26.857-64.571-26.857-26.857-64.571 26.857-64.571 64.571-26.857z" />
<glyph unicode="&#xe948;" glyph-name="location" d="M512 896c-176.732 0-320-143.268-320-320 0-320 320-704 320-704s320 384 320 704c0 176.732-143.27 320-320 320zM512 380c-108.248 0-196 87.752-196 196s87.752 196 196 196 196-87.752 196-196-87.752-196-196-196zM388 576c0 68.483 55.517 124 124 124s124-55.517 124-124c0-68.483-55.517-124-124-124s-124 55.517-124 124z" />
<glyph unicode="&#xe9af;" glyph-name="airplane" d="M768 256.032l-182.82 182.822 438.82 329.15-128.010 127.996-548.52-219.442-172.7 172.706c-49.78 49.778-119.302 61.706-154.502 26.508-35.198-35.198-23.268-104.726 26.51-154.5l172.686-172.684-219.464-548.582 127.99-128.006 329.19 438.868 182.826-182.828v-255.98h127.994l63.992 191.988 191.988 63.996v127.992l-255.98-0.004z" />
<glyph unicode="&#xe9c5;" glyph-name="download" d="M896 384h-160l-224-224-224 224h-160l-128-256v-64h1024v64l-128 256zM0 0h1024v-64h-1024v64zM576 576v256h-128v-256h-224l288-288 288 288h-224z" />
<glyph unicode="&#xe9d9;" glyph-name="star" d="M1024 498.95l-353.78 51.408-158.22 320.582-158.216-320.582-353.784-51.408 256-249.538-60.432-352.352 316.432 166.358 316.432-166.358-60.434 352.352 256.002 249.538z" />
<glyph unicode="&#xe9da;" glyph-name="heart" d="M755.188 832c-107.63 0-200.258-87.554-243.164-179-42.938 91.444-135.578 179-243.216 179-148.382 0-268.808-120.44-268.808-268.832 0-301.846 304.5-380.994 512.022-679.418 196.154 296.576 511.978 387.206 511.978 679.418 0 148.392-120.43 268.832-268.812 268.832z" />
<glyph unicode="&#xea0c;" glyph-name="info" d="M448 592c0 26.4 21.6 48 48 48h32c26.4 0 48-21.6 48-48v-32c0-26.4-21.6-48-48-48h-32c-26.4 0-48 21.6-48 48v32zM640 128h-256v64h64v192h-64v64h192v-256h64zM512 896c-282.77 0-512-229.23-512-512s229.23-512 512-512 512 229.23 512 512-229.23 512-512 512zM512-32c-229.75 0-416 186.25-416 416s186.25 416 416 416 416-186.25 416-416-186.25-416-416-416z" />
<glyph unicode="&#xea2e;" glyph-name="rotate-left" d="M889.68 729.68c-93.608 102.216-228.154 166.32-377.68 166.32-282.77 0-512-229.23-512-512h96c0 229.75 186.25 416 416 416 123.020 0 233.542-53.418 309.696-138.306l-149.696-149.694h352v352l-134.32-134.32zM928 384c0-229.75-186.25-416-416-416-123.020 0-233.542 53.418-309.694 138.306l149.694 149.694h-352v-352l134.32 134.32c93.608-102.216 228.154-166.32 377.68-166.32 282.77 0 512 229.23 512 512h-96z" />
<glyph unicode="&#xea8a;" glyph-name="google-plus" d="M437.006 77.838c0-75.068-46.39-134.392-177.758-139.176-76.984 43.786-141.49 106.952-186.908 182.866 23.69 58.496 97.692 103.046 182.316 102.114 24.022-0.252 46.41-4.114 66.744-10.7 55.908-38.866 101-63.152 112.324-107.448 2.114-8.964 3.282-18.206 3.282-27.656zM512 896c-147.94 0-281.196-62.77-374.666-163.098 36.934 20.452 80.538 32.638 126.902 32.638 67.068 0 256.438 0 256.438 0l-57.304-60.14h-67.31c47.496-27.212 72.752-83.248 72.752-145.012 0-56.692-31.416-102.38-75.78-137.058-43.28-33.802-51.492-47.966-51.492-76.734 0-24.542 51.722-61.098 75.5-78.936 82.818-62.112 99.578-101.184 99.578-178.87 0-78.726-68.936-157.104-185.866-183.742 56.348-21.338 117.426-33.048 181.248-33.048 282.77 0 512 229.23 512 512s-229.23 512-512 512zM768 512v-128h-64v128h-128v64h128v128h64v-128h128v-64h-128zM365.768 556.528c11.922-90.776-27.846-149.19-96.934-147.134-69.126 2.082-134.806 65.492-146.74 156.242-11.928 90.788 34.418 160.254 103.53 158.196 69.090-2.074 128.22-76.542 140.144-167.304zM220.886 253.932c-74.68 0-138.128-25.768-182.842-63.864-24.502 59.82-38.044 125.29-38.044 193.932 0 56.766 9.256 111.368 26.312 162.396 7.374-99.442 77.352-176.192 192.97-176.192 8.514 0 16.764 0.442 24.874 1.022-7.95-15.23-13.622-32.19-13.622-49.982 0-29.97 16.488-47.070 36.868-66.894-15.402 0-30.27-0.418-46.516-0.418z" />
<glyph unicode="&#xea8e;" glyph-name="facebook" d="M512 896c-282.77 0-512-229.23-512-512s229.23-512 512-512v384h-128v128h128v96c0 88.366 71.632 160 160 160h160v-128h-160c-17.674 0-32-14.328-32-32v-96h176l-32-128h-144v-367.87c220.828 56.838 384 257.3 384 495.87 0 282.77-229.23 512-512 512z" />
<glyph unicode="&#xea93;" glyph-name="twitter" d="M512 896c-282.77 0-512-229.23-512-512s229.23-512 512-512 512 229.23 512 512-229.23 512-512 512zM766.478 514.52c0.252-5.632 0.38-11.296 0.38-16.988 0-173.51-132.070-373.588-373.584-373.588-74.15 0-143.168 21.738-201.276 58.996 10.272-1.218 20.724-1.84 31.322-1.84 61.518 0 118.134 20.992 163.072 56.21-57.458 1.054-105.948 39.020-122.658 91.184 8.018-1.532 16.244-2.36 24.704-2.36 11.976 0 23.578 1.61 34.592 4.61-60.064 12.066-105.326 65.132-105.326 128.75 0 0.554 0 1.104 0.012 1.652 17.7-9.834 37.948-15.742 59.47-16.424-35.232 23.546-58.414 63.736-58.414 109.292 0 24.064 6.476 46.62 17.78 66.010 64.76-79.44 161.51-131.712 270.634-137.19-2.238 9.612-3.4 19.632-3.4 29.924 0 72.512 58.792 131.298 131.304 131.298 37.766 0 71.892-15.944 95.842-41.462 29.908 5.886 58.008 16.814 83.38 31.862-9.804-30.662-30.624-56.394-57.732-72.644 26.56 3.174 51.866 10.232 75.412 20.674-17.594-26.328-39.854-49.454-65.514-67.966z" />
<glyph unicode="&#xead7;" glyph-name="paypal" d="M880.634 765.226c25.698-12.576 48.094-30.486 64.502-52.482 34.536-46.3 44.236-109.372 28.836-187.466-15.56-79.026-50.416-145.734-101.166-194.044-9.282-9.702-19.222-18.746-29.804-27.080-54.356-42.802-122.998-65.428-198.508-65.428h-240.060l-64.564-302.726h-132.424l10.086 46.3h46.128l64.564 302.726h188.27c180.25 0 330.938 111.078 371.258 299.936 45.722 213.834-107.598 311.038-239.41 311.038h-449.278l-199.064-913.7h152.032l-24.032-110.3h263.66l64.564 302.726h188.27c180.25 0 330.938 111.078 371.258 299.936 33.716 157.68-40.804 251.932-135.118 290.564zM640.262 584.962c-13.724-59.060-64.428-108.040-120.656-121.368l30.738 136.022h92.986c-0.728-4.806-1.722-9.69-3.068-14.654zM422.344 709.918h129.132c36.76 0 66.508-18.004 81.87-46.3h-134.154l-46.016-203.63h-87.312l56.48 249.93z" />
<glyph unicode="&#xf00b;" glyph-name="list" d="M292.571 237.714v-109.714q0-22.857-16-38.857t-38.857-16h-182.857q-22.857 0-38.857 16t-16 38.857v109.714q0 22.857 16 38.857t38.857 16h182.857q22.857 0 38.857-16t16-38.857zM292.571 530.286v-109.714q0-22.857-16-38.857t-38.857-16h-182.857q-22.857 0-38.857 16t-16 38.857v109.714q0 22.857 16 38.857t38.857 16h182.857q22.857 0 38.857-16t16-38.857zM1024 237.714v-109.714q0-22.857-16-38.857t-38.857-16h-548.571q-22.857 0-38.857 16t-16 38.857v109.714q0 22.857 16 38.857t38.857 16h548.571q22.857 0 38.857-16t16-38.857zM292.571 822.857v-109.714q0-22.857-16-38.857t-38.857-16h-182.857q-22.857 0-38.857 16t-16 38.857v109.714q0 22.857 16 38.857t38.857 16h182.857q22.857 0 38.857-16t16-38.857zM1024 530.286v-109.714q0-22.857-16-38.857t-38.857-16h-548.571q-22.857 0-38.857 16t-16 38.857v109.714q0 22.857 16 38.857t38.857 16h548.571q22.857 0 38.857-16t16-38.857zM1024 822.857v-109.714q0-22.857-16-38.857t-38.857-16h-548.571q-22.857 0-38.857 16t-16 38.857v109.714q0 22.857 16 38.857t38.857 16h548.571q22.857 0 38.857-16t16-38.857z" />
<glyph unicode="&#xf030;" glyph-name="camera" horiz-adv-x="1097" d="M548.571 512q68 0 116.286-48.286t48.286-116.286-48.286-116.286-116.286-48.286-116.286 48.286-48.286 116.286 48.286 116.286 116.286 48.286zM950.857 749.714q60.571 0 103.429-42.857t42.857-103.429v-512q0-60.571-42.857-103.429t-103.429-42.857h-804.571q-60.571 0-103.429 42.857t-42.857 103.429v512q0 60.571 42.857 103.429t103.429 42.857h128l29.143 77.714q10.857 28 39.714 48.286t59.143 20.286h292.571q30.286 0 59.143-20.286t39.714-48.286l29.143-77.714h128zM548.571 91.429q105.714 0 180.857 75.143t75.143 180.857-75.143 180.857-180.857 75.143-180.857-75.143-75.143-180.857 75.143-180.857 180.857-75.143z" />
<glyph unicode="&#xf03e;" glyph-name="gallery" horiz-adv-x="1097" d="M365.714 566.857q0-45.714-32-77.714t-77.714-32-77.714 32-32 77.714 32 77.714 77.714 32 77.714-32 32-77.714zM950.857 347.429v-256h-804.571v109.714l182.857 182.857 91.429-91.429 292.571 292.571zM1005.714 749.714h-914.286q-7.429 0-12.857-5.429t-5.429-12.857v-694.857q0-7.429 5.429-12.857t12.857-5.429h914.286q7.429 0 12.857 5.429t5.429 12.857v694.857q0 7.429-5.429 12.857t-12.857 5.429zM1097.143 731.429v-694.857q0-37.714-26.857-64.571t-64.571-26.857h-914.286q-37.714 0-64.571 26.857t-26.857 64.571v694.857q0 37.714 26.857 64.571t64.571 26.857h914.286q37.714 0 64.571-26.857t26.857-64.571z" />
<glyph unicode="&#xf046;" glyph-name="check-square-o" horiz-adv-x="951" d="M804.571 419.428v-181.714q0-68-48.286-116.286t-116.286-48.286h-475.429q-68 0-116.286 48.286t-48.286 116.286v475.429q0 68 48.286 116.286t116.286 48.286h475.429q36 0 66.857-14.286 8.571-4 10.286-13.143 1.714-9.714-5.143-16.571l-28-28q-5.714-5.714-13.143-5.714-1.714 0-5.143 1.143-13.143 3.429-25.714 3.429h-475.429q-37.714 0-64.571-26.857t-26.857-64.571v-475.429q0-37.714 26.857-64.571t64.571-26.857h475.429q37.714 0 64.571 26.857t26.857 64.571v145.143q0 7.429 5.143 12.571l36.571 36.571q5.714 5.714 13.143 5.714 3.429 0 6.857-1.714 11.429-4.571 11.429-16.571zM936.571 698.857l-465.143-465.143q-13.714-13.714-32.571-13.714t-32.571 13.714l-245.714 245.714q-13.714 13.714-13.714 32.571t13.714 32.571l62.857 62.857q13.714 13.714 32.571 13.714t32.571-13.714l150.286-150.286 369.714 369.714q13.714 13.714 32.571 13.714t32.571-13.714l62.857-62.857q13.714-13.714 13.714-32.571t-13.714-32.571z" />
<glyph unicode="&#xf053;" glyph-name="chevron-left" horiz-adv-x="731" d="M669.143 724l-303.429-303.429 303.429-303.429q10.857-10.857 10.857-25.714t-10.857-25.714l-94.857-94.857q-10.857-10.857-25.714-10.857t-25.714 10.857l-424 424q-10.857 10.857-10.857 25.714t10.857 25.714l424 424q10.857 10.857 25.714 10.857t25.714-10.857l94.857-94.857q10.857-10.857 10.857-25.714t-10.857-25.714z" />
<glyph unicode="&#xf054;" glyph-name="chevron-right" horiz-adv-x="731" d="M632.571 394.857l-424-424q-10.857-10.857-25.714-10.857t-25.714 10.857l-94.857 94.857q-10.857 10.857-10.857 25.714t10.857 25.714l303.429 303.429-303.429 303.429q-10.857 10.857-10.857 25.714t10.857 25.714l94.857 94.857q10.857 10.857 25.714 10.857t25.714-10.857l424-424q10.857-10.857 10.857-25.714t-10.857-25.714z" />
<glyph unicode="&#xf077;" glyph-name="chevron-up" d="M961.714 135.429l-94.857-94.286q-10.857-10.857-25.714-10.857t-25.714 10.857l-303.429 303.429-303.429-303.429q-10.857-10.857-25.714-10.857t-25.714 10.857l-94.857 94.286q-10.857 10.857-10.857 26t10.857 26l424 423.429q10.857 10.857 25.714 10.857t25.714-10.857l424-423.429q10.857-10.857 10.857-26t-10.857-26z" />
<glyph unicode="&#xf078;" glyph-name="chevron-down" d="M961.714 434.286l-424-423.429q-10.857-10.857-25.714-10.857t-25.714 10.857l-424 423.429q-10.857 10.857-10.857 26t10.857 26l94.857 94.286q10.857 10.857 25.714 10.857t25.714-10.857l303.429-303.429 303.429 303.429q10.857 10.857 25.714 10.857t25.714-10.857l94.857-94.286q10.857-10.857 10.857-26t-10.857-26z" />
<glyph unicode="&#xf07a;" glyph-name="cart2" horiz-adv-x="951" d="M365.714 18.286q0-29.714-21.714-51.429t-51.429-21.714-51.429 21.714-21.714 51.429 21.714 51.429 51.429 21.714 51.429-21.714 21.714-51.429zM877.714 18.286q0-29.714-21.714-51.429t-51.429-21.714-51.429 21.714-21.714 51.429 21.714 51.429 51.429 21.714 51.429-21.714 21.714-51.429zM950.857 640v-292.571q0-13.714-9.429-24.286t-23.143-12.286l-596.571-69.714q7.429-34.286 7.429-40 0-9.143-13.714-36.571h525.714q14.857 0 25.714-10.857t10.857-25.714-10.857-25.714-25.714-10.857h-585.143q-14.857 0-25.714 10.857t-10.857 25.714q0 6.286 4.571 18t9.143 20.571 12.286 22.857 8.857 16.857l-101.143 470.286h-116.571q-14.857 0-25.714 10.857t-10.857 25.714 10.857 25.714 25.714 10.857h146.286q9.143 0 16.286-3.714t11.143-8.857 7.429-14 4.571-14.857 3.143-16.857 2.571-14.857h686.286q14.857 0 25.714-10.857t10.857-25.714z" />
<glyph unicode="&#xf096;" glyph-name="square-o" horiz-adv-x="805" d="M640 804.571h-475.429q-37.714 0-64.571-26.857t-26.857-64.571v-475.429q0-37.714 26.857-64.571t64.571-26.857h475.429q37.714 0 64.571 26.857t26.857 64.571v475.429q0 37.714-26.857 64.571t-64.571 26.857zM804.571 713.143v-475.429q0-68-48.286-116.286t-116.286-48.286h-475.429q-68 0-116.286 48.286t-48.286 116.286v475.429q0 68 48.286 116.286t116.286 48.286h475.429q68 0 116.286-48.286t48.286-116.286z" />
<glyph unicode="&#xf098;" glyph-name="phone-square" d="M731.429 214.286q0 6.286-1.143 9.143-1.714 4.571-22 16.857t-50.571 28.286l-30.286 16.571q-2.857 1.714-10.857 7.429t-14.286 8.571-12 2.857q-10.286 0-26.857-18.571t-32.571-37.429-25.143-18.857q-4 0-9.429 2t-8.857 3.714-9.714 5.429-8 4.857q-56.571 31.429-97.429 72.286t-72.286 97.429q-1.143 1.714-4.857 8t-5.429 9.714-3.714 8.857-2 9.429q0 7.429 11.714 19.143t25.714 22 25.714 22.571 11.714 20.857q0 5.714-2.857 12t-8.571 14.286-7.429 10.857q-1.714 3.429-8.571 16.286t-14.286 26-15.143 27.143-14.286 23.143-9.429 10.286-9.143 1.143q-27.429 0-57.714-12.571-26.286-12-45.714-54t-19.429-74.571q0-9.143 1.429-19.429t2.857-17.429 5.143-18.857 5.714-16.857 7.143-18.857 6.286-17.143q34.286-93.714 123.714-183.143t183.143-123.714q3.429-1.143 17.143-6.286t18.857-7.143 16.857-5.714 18.857-5.143 17.429-2.857 19.429-1.429q32.571 0 74.571 19.429t54 45.714q12.571 30.286 12.571 57.714zM877.714 658.286v-548.571q0-68-48.286-116.286t-116.286-48.286h-548.571q-68 0-116.286 48.286t-48.286 116.286v548.571q0 68 48.286 116.286t116.286 48.286h548.571q68 0 116.286-48.286t48.286-116.286z" />
<glyph unicode="&#xf0c8;" glyph-name="square" d="M877.714 713.143v-548.571q0-68-48.286-116.286t-116.286-48.286h-548.571q-68 0-116.286 48.286t-48.286 116.286v548.571q0 68 48.286 116.286t116.286 48.286h548.571q68 0 116.286-48.286t48.286-116.286z" />
<glyph unicode="&#xf0f2;" glyph-name="suitcase" d="M365.714 676.571h292.571v73.143h-292.571v-73.143zM164.571 676.571v-731.429h-36.571q-52.571 0-90.286 37.714t-37.714 90.286v475.429q0 52.571 37.714 90.286t90.286 37.714h36.571zM804.571 676.571v-731.429h-585.143v731.429h73.143v91.429q0 22.857 16 38.857t38.857 16h329.143q22.857 0 38.857-16t16-38.857v-91.429h73.143zM1024 548.571v-475.429q0-52.571-37.714-90.286t-90.286-37.714h-36.571v731.429h36.571q52.571 0 90.286-37.714t37.714-90.286z" />
<glyph unicode="&#xf0f5;" glyph-name="cutlery" horiz-adv-x="805" d="M365.714 914.286v-365.714q0-34.857-20.286-63.429t-52.857-40v-445.143q0-29.714-21.714-51.429t-51.429-21.714h-73.143q-29.714 0-51.429 21.714t-21.714 51.429v445.143q-32.571 11.429-52.857 40t-20.286 63.429v365.714q0 14.857 10.857 25.714t25.714 10.857 25.714-10.857 10.857-25.714v-237.714q0-14.857 10.857-25.714t25.714-10.857 25.714 10.857 10.857 25.714v237.714q0 14.857 10.857 25.714t25.714 10.857 25.714-10.857 10.857-25.714v-237.714q0-14.857 10.857-25.714t25.714-10.857 25.714 10.857 10.857 25.714v237.714q0 14.857 10.857 25.714t25.714 10.857 25.714-10.857 10.857-25.714zM804.571 914.286v-914.286q0-29.714-21.714-51.429t-51.429-21.714h-73.143q-29.714 0-51.429 21.714t-21.714 51.429v292.571h-128q-7.429 0-12.857 5.429t-5.429 12.857v457.143q0 75.429 53.714 129.143t129.143 53.714h146.286q14.857 0 25.714-10.857t10.857-25.714z" />
<glyph unicode="&#xf10c;" glyph-name="circle-o" d="M438.857 749.714q-84.571 0-156-41.714t-113.143-113.143-41.714-156 41.714-156 113.143-113.143 156-41.714 156 41.714 113.143 113.143 41.714 156-41.714 156-113.143 113.143-156 41.714zM877.714 438.857q0-119.429-58.857-220.286t-159.714-159.714-220.286-58.857-220.286 58.857-159.714 159.714-58.857 220.286 58.857 220.286 159.714 159.714 220.286 58.857 220.286-58.857 159.714-159.714 58.857-220.286z" />
<glyph unicode="&#xf111;" glyph-name="circle" d="M877.714 438.857q0-119.429-58.857-220.286t-159.714-159.714-220.286-58.857-220.286 58.857-159.714 159.714-58.857 220.286 58.857 220.286 159.714 159.714 220.286 58.857 220.286-58.857 159.714-159.714 58.857-220.286z" />
<glyph unicode="&#xf14a;" glyph-name="check-square" d="M391.429 208.571l350.857 350.857q10.857 10.857 10.857 25.714t-10.857 25.714l-58.286 58.286q-10.857 10.857-25.714 10.857t-25.714-10.857l-266.857-266.857-120.571 120.571q-10.857 10.857-25.714 10.857t-25.714-10.857l-58.286-58.286q-10.857-10.857-10.857-25.714t10.857-25.714l204.571-204.571q10.857-10.857 25.714-10.857t25.714 10.857zM877.714 713.143v-548.571q0-68-48.286-116.286t-116.286-48.286h-548.571q-68 0-116.286 48.286t-48.286 116.286v548.571q0 68 48.286 116.286t116.286 48.286h548.571q68 0 116.286-48.286t48.286-116.286z" />
<glyph unicode="&#xf164;" glyph-name="thumbs-up" horiz-adv-x="951" d="M146.286 128q0 14.857-10.857 25.714t-25.714 10.857q-15.429 0-26-10.857t-10.571-25.714q0-15.429 10.571-26t26-10.571q14.857 0 25.714 10.571t10.857 26zM237.714 420.571v-365.714q0-14.857-10.857-25.714t-25.714-10.857h-164.571q-14.857 0-25.714 10.857t-10.857 25.714v365.714q0 14.857 10.857 25.714t25.714 10.857h164.571q14.857 0 25.714-10.857t10.857-25.714zM914.286 420.571q0-49.143-31.429-85.143 8.571-25.143 8.571-43.429 1.714-43.429-24.571-78.286 9.714-32 0-66.857-8.571-32.571-30.857-53.714 5.143-64-28-103.429-36.571-43.429-112.571-44.571h-73.714q-37.714 0-82.286 8.857t-69.429 16.571-68.857 22.571q-70.286 24.571-90.286 25.143-14.857 0.571-25.714 11.143t-10.857 25.429v366.286q0 14.286 10.286 24.857t24.571 11.714q13.714 1.143 43.429 33.714t57.714 69.143q38.857 49.714 57.714 68.571 10.286 10.286 17.714 27.429t10 27.714 7.714 34.571q4 22.286 7.143 34.857t11.143 29.714 19.429 28.571q10.857 10.857 25.714 10.857 26.286 0 47.143-6t34.286-14.857 22.857-23.143 13.714-25.714 6.857-28.571 2.857-25.714 0.286-22.286q0-21.714-5.429-43.429t-10.857-34.286-15.714-32q-1.714-3.429-5.714-10.286t-6.286-12.571-4.571-13.714h158.286q44.571 0 77.143-32.571t32.571-77.143z" />
<glyph unicode="&#xf236;" glyph-name="bed" horiz-adv-x="1170" d="M146.286 365.714h987.429q14.857 0 25.714-10.857t10.857-25.714v-256h-146.286v146.286h-877.714v-146.286h-146.286v694.857q0 14.857 10.857 25.714t25.714 10.857h73.143q14.857 0 25.714-10.857t10.857-25.714v-402.286zM475.429 548.571q0 60.571-42.857 103.429t-103.429 42.857-103.429-42.857-42.857-103.429 42.857-103.429 103.429-42.857 103.429 42.857 42.857 103.429zM1170.286 402.286v36.571q0 90.857-64.286 155.143t-155.143 64.286h-402.286q-14.857 0-25.714-10.857t-10.857-25.714v-219.429h658.286z" />
</font>
</defs>
</svg>
